<svg id="svg" version="1.1" xmlns="http://www.w3.org/2000/svg" xmlns:xlink="http://www.w3.org/1999/xlink" width="400" height="76.47058823529412" viewBox="0, 0, 400,76.47058823529412"><g id="svgg"><path id="path0" d="M28.653 0.375 C 28.645 0.581,28.618 0.938,28.593 1.167 C 28.525 1.775,28.655 2.000,29.075 2.000 C 29.637 2.000,30.000 1.488,30.000 0.695 L 30.000 0.000 29.333 0.000 C 28.757 0.000,28.665 0.051,28.653 0.375 M117.000 0.333 C 117.000 0.649,116.889 0.667,114.857 0.667 C 111.985 0.667,111.177 0.785,111.006 1.233 C 110.754 1.890,110.289 2.145,109.247 2.199 L 108.250 2.250 108.199 2.949 C 108.149 3.642,108.142 3.649,107.449 3.699 L 106.750 3.750 106.699 4.542 C 106.654 5.250,106.607 5.333,106.253 5.333 C 105.234 5.333,105.126 6.015,105.197 11.972 C 105.255 16.772,105.269 16.833,106.282 16.833 C 106.627 16.833,106.667 16.911,106.667 17.583 L 106.667 18.333 107.417 18.333 L 108.167 18.333 108.167 19.083 L 108.167 19.833 108.816 19.833 C 109.497 19.833,109.667 20.015,109.667 20.744 C 109.667 21.249,110.006 21.328,112.190 21.331 L 113.963 21.333 114.069 21.901 C 114.229 22.750,114.125 22.740,123.197 22.798 L 131.644 22.853 131.752 23.344 C 131.867 23.867,132.257 24.167,132.822 24.167 C 133.104 24.167,133.167 24.272,133.167 24.744 C 133.167 25.357,133.499 25.667,134.156 25.667 C 134.479 25.667,134.500 25.761,134.500 27.239 L 134.500 28.811 134.046 28.864 C 133.459 28.932,133.172 29.502,133.169 30.605 L 133.167 31.461 131.875 31.580 C 130.405 31.716,130.167 31.848,130.167 32.520 L 130.167 33.000 123.500 33.000 L 116.833 33.000 116.831 32.542 C 116.827 31.818,116.665 31.718,115.292 31.591 C 114.084 31.479,114.000 31.446,114.000 31.083 C 114.000 30.348,113.832 30.167,113.149 30.167 L 112.500 30.167 112.500 27.329 L 112.500 24.492 112.042 24.316 C 111.513 24.113,105.702 24.173,105.375 24.385 C 105.217 24.487,105.167 25.535,105.167 28.682 C 105.167 33.349,105.262 33.876,106.164 34.217 C 106.612 34.386,106.667 34.481,106.667 35.100 C 106.667 35.830,106.868 35.992,107.782 35.998 C 108.082 36.000,108.156 36.110,108.198 36.623 C 108.260 37.364,108.619 37.474,111.032 37.490 L 112.480 37.500 112.532 38.125 L 112.583 38.750 124.917 38.750 L 137.250 38.750 137.404 38.125 C 137.548 37.543,137.601 37.500,138.178 37.500 C 138.850 37.500,139.000 37.315,139.000 36.486 C 139.000 36.047,139.053 36.000,139.550 36.000 C 140.366 36.000,140.500 35.761,140.500 34.310 L 140.500 33.020 141.125 32.968 L 141.750 32.917 141.794 27.461 C 141.842 21.504,141.815 21.333,140.833 21.333 C 140.576 21.333,140.500 21.222,140.500 20.847 C 140.500 20.009,140.352 19.833,139.649 19.833 C 139.043 19.833,139.000 19.801,139.000 19.347 C 139.000 18.386,138.918 18.333,137.409 18.333 L 136.020 18.333 135.968 17.710 C 135.900 16.888,135.697 16.855,130.542 16.843 C 126.729 16.834,126.481 16.814,126.167 16.500 C 125.655 15.988,119.880 15.988,119.417 16.500 C 119.171 16.771,118.903 16.833,117.984 16.833 L 116.853 16.833 116.802 16.208 L 116.750 15.583 115.399 15.535 L 114.048 15.487 113.938 13.913 C 113.801 11.968,113.644 11.533,113.001 11.309 C 112.394 11.097,112.345 10.833,112.913 10.833 C 113.485 10.833,113.811 10.260,113.940 9.030 L 114.047 8.000 114.612 8.000 C 115.182 8.000,115.224 7.954,115.406 7.125 L 115.506 6.667 123.587 6.667 L 131.667 6.667 131.667 7.333 L 131.667 8.000 132.412 8.000 L 133.157 8.000 133.203 10.208 L 133.250 12.417 136.833 12.417 L 140.417 12.417 140.461 9.000 C 140.513 4.950,140.374 4.173,139.554 3.929 C 139.125 3.801,139.010 3.658,138.892 3.103 C 138.729 2.330,138.476 2.210,136.968 2.183 L 136.020 2.167 135.968 1.542 C 135.905 0.773,135.561 0.709,131.375 0.683 C 128.783 0.667,128.667 0.652,128.667 0.333 C 128.667 0.006,128.556 0.000,122.833 0.000 C 117.111 0.000,117.000 0.006,117.000 0.333 M144.939 0.773 C 144.760 2.081,144.815 37.930,144.997 38.409 L 145.161 38.839 149.372 38.795 L 153.583 38.750 153.627 30.792 L 153.670 22.833 155.252 22.833 C 156.806 22.833,156.833 22.840,156.833 23.230 C 156.833 23.810,157.165 23.997,158.397 24.112 C 159.467 24.212,159.500 24.229,159.500 24.677 C 159.500 25.487,159.653 25.667,160.342 25.667 C 160.974 25.667,160.981 25.674,161.032 26.375 C 161.083 27.080,161.087 27.084,161.792 27.135 C 162.476 27.184,162.500 27.205,162.500 27.754 C 162.500 28.376,162.838 28.667,163.562 28.667 C 163.907 28.667,163.988 28.757,164.031 29.192 C 164.086 29.740,164.287 29.918,165.028 30.073 C 165.357 30.142,165.503 30.300,165.585 30.677 C 165.721 31.295,166.178 31.500,167.418 31.500 L 168.314 31.500 168.365 32.208 C 168.416 32.913,168.420 32.917,169.125 32.968 C 169.781 33.015,169.833 33.054,169.833 33.496 C 169.833 34.324,169.983 34.500,170.684 34.500 C 171.314 34.500,171.333 34.518,171.333 35.077 C 171.333 35.713,171.667 36.000,172.406 36.000 C 172.727 36.000,172.833 36.086,172.833 36.344 C 172.833 37.114,173.103 37.299,174.396 37.420 L 175.630 37.536 175.734 38.185 L 175.837 38.833 178.752 38.833 L 181.667 38.833 181.667 39.250 C 181.667 40.546,183.695 40.757,184.743 39.570 C 185.485 38.729,185.570 37.614,184.937 37.019 C 184.655 36.754,184.517 36.406,184.460 35.813 C 184.357 34.735,184.275 34.670,182.859 34.552 C 181.736 34.457,181.667 34.428,181.667 34.048 C 181.667 33.343,181.372 33.000,180.765 33.000 C 180.248 33.000,180.202 32.955,180.105 32.348 L 180.001 31.697 178.584 31.579 L 177.167 31.461 177.167 30.814 L 177.167 30.167 176.417 30.167 L 175.667 30.167 175.667 29.417 L 175.667 28.667 175.000 28.667 C 174.375 28.667,174.333 28.637,174.333 28.180 C 174.333 27.349,174.184 27.167,173.503 27.167 C 172.903 27.167,172.871 27.139,172.772 26.518 C 172.662 25.831,172.447 25.667,171.653 25.667 C 171.228 25.667,171.167 25.606,171.167 25.187 C 171.167 24.519,170.926 24.379,169.542 24.243 L 168.333 24.124 168.333 23.478 L 168.333 22.833 167.583 22.833 L 166.833 22.833 166.833 22.083 L 166.833 21.333 166.167 21.333 C 165.562 21.333,165.500 21.293,165.500 20.906 C 165.500 20.134,165.218 19.833,164.494 19.833 C 163.921 19.833,163.833 19.784,163.831 19.458 C 163.827 18.898,163.605 18.648,162.980 18.500 C 162.517 18.391,162.625 18.364,163.593 18.350 C 164.925 18.331,165.289 18.139,165.365 17.417 C 165.411 16.970,165.488 16.908,166.083 16.833 C 166.733 16.752,166.751 16.732,166.801 16.042 L 166.852 15.333 167.593 15.333 L 168.333 15.333 168.333 14.676 C 168.333 14.022,168.337 14.019,169.042 13.968 C 169.745 13.917,169.750 13.912,169.801 13.217 C 169.851 12.525,169.858 12.518,170.551 12.467 C 171.245 12.417,171.250 12.412,171.301 11.708 L 171.352 11.000 172.093 11.000 L 172.833 11.000 172.833 10.250 L 172.833 9.500 174.050 9.500 C 175.420 9.500,175.667 9.356,175.667 8.560 C 175.667 8.043,175.698 8.017,176.375 7.968 C 177.063 7.918,177.085 7.898,177.135 7.292 C 177.182 6.727,177.233 6.667,177.663 6.667 C 178.488 6.667,178.667 6.516,178.667 5.825 C 178.667 5.192,178.674 5.185,179.374 5.135 C 179.926 5.095,180.094 5.010,180.143 4.750 C 180.253 4.167,180.871 3.723,181.733 3.608 C 182.944 3.447,183.000 3.357,183.000 1.563 L 183.000 0.000 178.667 0.000 C 174.444 0.000,174.333 0.009,174.333 0.333 C 174.333 0.567,174.221 0.667,173.958 0.669 C 173.052 0.674,172.833 0.839,172.833 1.519 C 172.833 2.156,172.823 2.167,172.208 2.171 C 170.729 2.180,170.008 2.536,170.003 3.260 C 170.001 3.527,169.843 3.637,169.292 3.760 C 168.629 3.907,168.580 3.956,168.532 4.533 C 168.483 5.127,168.457 5.150,167.782 5.199 C 167.088 5.250,167.083 5.255,167.032 5.958 L 166.981 6.667 166.240 6.667 L 165.500 6.667 165.500 7.323 C 165.500 7.973,165.493 7.981,164.750 8.092 C 164.011 8.203,164.000 8.214,164.000 8.843 C 164.000 9.474,163.993 9.481,163.292 9.532 C 162.591 9.583,162.583 9.591,162.533 10.268 L 162.483 10.953 161.311 11.051 C 159.972 11.164,159.667 11.344,159.667 12.020 C 159.667 12.424,159.599 12.500,159.239 12.500 C 158.505 12.500,158.167 12.788,158.167 13.413 C 158.167 13.962,158.143 13.983,157.458 14.032 C 156.753 14.083,156.750 14.087,156.699 14.792 L 156.648 15.500 155.157 15.500 L 153.667 15.500 153.667 7.750 L 153.667 0.000 149.356 -0.000 L 145.045 -0.000 144.939 0.773 M187.536 1.792 L 187.583 3.583 188.283 3.634 C 188.975 3.684,188.982 3.692,189.033 4.384 C 189.083 5.077,189.090 5.084,189.783 5.134 C 190.475 5.184,190.482 5.192,190.533 5.884 C 190.581 6.557,190.606 6.585,191.191 6.634 C 191.896 6.693,191.994 6.902,191.998 8.357 C 192.000 9.357,192.117 9.500,192.930 9.500 C 193.252 9.500,193.333 9.586,193.333 9.928 C 193.333 10.662,193.621 11.000,194.246 11.000 C 194.795 11.000,194.816 11.024,194.865 11.708 C 194.916 12.409,194.924 12.417,195.602 12.467 L 196.287 12.517 196.383 13.552 C 196.515 14.958,196.609 15.141,197.266 15.264 C 197.770 15.359,197.833 15.429,197.833 15.902 C 197.833 16.579,198.093 16.833,198.783 16.833 C 199.324 16.833,199.333 16.846,199.333 17.583 L 199.333 18.333 200.000 18.333 C 200.580 18.333,200.667 18.382,200.669 18.708 C 200.674 19.607,200.842 19.833,201.498 19.833 L 202.124 19.833 202.243 21.042 C 202.379 22.426,202.519 22.667,203.187 22.667 L 203.667 22.667 203.667 25.293 C 203.667 27.739,203.644 27.934,203.333 28.128 C 203.150 28.242,203.000 28.436,203.000 28.559 C 203.000 28.681,203.150 28.917,203.333 29.083 C 203.566 29.294,203.667 29.597,203.667 30.083 C 203.667 30.570,203.566 30.873,203.333 31.083 C 202.912 31.465,202.911 31.752,203.330 32.045 C 203.636 32.260,203.662 32.505,203.705 35.513 L 203.750 38.750 206.954 38.795 L 210.159 38.841 210.602 39.284 L 211.045 39.727 211.689 39.037 C 212.410 38.264,212.602 36.919,212.089 36.240 C 211.886 35.972,211.843 35.033,211.839 30.784 L 211.833 25.651 211.417 25.265 C 211.060 24.934,211.000 24.732,211.000 23.865 L 211.000 22.852 211.708 22.801 C 212.413 22.750,212.417 22.747,212.468 22.042 C 212.517 21.365,212.543 21.333,213.060 21.333 C 213.738 21.333,214.000 21.077,214.000 20.413 C 214.000 19.951,214.070 19.875,214.620 19.738 C 215.180 19.598,215.254 19.514,215.380 18.875 C 215.493 18.301,215.589 18.166,215.885 18.164 C 216.596 18.159,216.739 17.915,216.806 16.592 L 216.870 15.333 217.602 15.333 L 218.333 15.333 218.333 14.667 C 218.333 14.041,218.363 14.000,218.820 14.000 C 219.651 14.000,219.833 13.851,219.833 13.170 C 219.833 12.570,219.861 12.538,220.482 12.439 C 221.151 12.332,221.333 12.109,221.333 11.399 C 221.333 11.080,221.442 10.970,221.830 10.892 C 222.530 10.752,222.644 10.547,222.769 9.204 L 222.880 8.017 223.565 7.967 C 224.224 7.919,224.252 7.893,224.301 7.301 C 224.349 6.723,224.390 6.683,224.968 6.634 C 225.563 6.585,225.585 6.560,225.635 5.875 C 225.682 5.219,225.721 5.167,226.163 5.167 C 226.990 5.167,227.167 5.017,227.167 4.316 C 227.167 3.730,227.208 3.667,227.594 3.667 C 228.563 3.667,228.667 3.472,228.667 1.661 L 228.667 0.000 224.355 0.000 L 220.044 0.000 219.940 0.625 C 219.883 0.969,219.836 1.456,219.835 1.708 C 219.833 2.130,219.781 2.167,219.184 2.167 C 218.481 2.167,218.333 2.342,218.333 3.180 C 218.333 3.637,218.292 3.667,217.667 3.667 L 217.000 3.667 217.000 4.407 L 217.000 5.148 216.292 5.199 C 215.587 5.250,215.583 5.253,215.532 5.958 C 215.485 6.615,215.446 6.667,215.002 6.667 C 214.224 6.667,214.000 7.040,214.000 8.336 L 214.000 9.481 213.292 9.532 C 212.587 9.583,212.583 9.587,212.532 10.292 C 212.481 10.993,212.474 11.000,211.842 11.000 C 211.148 11.000,211.000 11.179,211.000 12.014 C 211.000 12.432,210.936 12.500,210.542 12.503 C 209.804 12.507,209.703 12.676,209.577 14.126 L 209.457 15.500 208.826 15.500 C 208.477 15.500,208.157 15.593,208.110 15.708 C 208.043 15.875,208.024 15.875,208.013 15.708 C 208.005 15.579,207.750 15.500,207.343 15.500 C 206.689 15.500,206.686 15.497,206.635 14.792 C 206.584 14.087,206.580 14.083,205.875 14.032 L 205.167 13.981 205.167 13.095 C 205.167 11.470,205.044 11.178,204.312 11.061 C 203.712 10.965,203.667 10.918,203.667 10.401 C 203.667 9.788,203.324 9.500,202.594 9.500 C 202.207 9.500,202.167 9.438,202.167 8.833 C 202.167 8.254,202.118 8.166,201.792 8.164 C 200.885 8.159,200.667 7.994,200.667 7.314 C 200.667 6.670,200.663 6.667,200.000 6.667 L 199.333 6.667 199.331 5.875 C 199.328 4.179,199.194 3.842,198.478 3.727 C 197.887 3.633,197.833 3.580,197.833 3.095 C 197.833 2.421,197.573 2.167,196.883 2.167 C 196.356 2.167,196.333 2.141,196.333 1.519 C 196.333 0.839,196.115 0.674,195.208 0.669 C 194.945 0.667,194.833 0.567,194.833 0.333 C 194.833 0.010,194.722 0.000,191.161 0.000 L 187.489 0.000 187.536 1.792 M230.167 1.571 C 230.167 3.327,230.330 3.667,231.179 3.667 L 231.667 3.667 231.667 5.072 C 231.667 6.339,231.700 6.488,232.005 6.585 C 232.949 6.885,233.167 7.347,233.167 9.055 C 233.167 10.768,233.285 11.000,234.156 11.000 C 234.466 11.000,234.500 11.100,234.500 12.010 C 234.500 13.850,234.997 15.167,235.692 15.167 C 235.967 15.167,236.000 15.317,236.000 16.550 C 236.000 18.094,236.125 18.333,236.932 18.333 L 237.464 18.333 237.524 20.225 C 237.590 22.313,237.735 22.667,238.520 22.667 L 239.000 22.667 239.000 24.089 C 239.000 25.825,239.280 26.607,239.988 26.854 C 240.485 27.027,240.488 27.035,240.535 28.467 L 240.583 29.905 241.167 30.064 C 241.487 30.152,241.785 30.252,241.829 30.287 C 241.872 30.323,241.947 31.226,241.995 32.295 L 242.083 34.239 242.708 34.386 L 243.333 34.533 243.336 35.642 C 243.339 36.902,243.626 38.031,244.054 38.459 C 244.440 38.845,254.785 39.010,255.024 38.634 C 255.100 38.514,255.163 37.835,255.164 37.125 L 255.167 35.833 255.646 35.833 C 256.390 35.833,256.518 35.518,256.621 33.434 L 256.715 31.517 257.309 31.467 C 258.053 31.404,258.128 31.175,258.150 28.875 C 258.166 27.184,258.171 27.167,258.570 27.167 C 259.443 27.167,259.500 27.066,259.500 25.517 L 259.500 24.069 260.042 23.909 C 260.742 23.703,260.978 23.037,260.991 21.230 L 261.000 19.876 261.647 19.772 C 262.448 19.644,262.495 19.499,262.498 17.125 L 262.500 15.333 263.147 15.333 C 263.953 15.333,263.995 15.209,263.998 12.792 L 264.000 11.000 264.667 11.000 C 265.033 11.000,265.333 10.922,265.333 10.827 C 265.333 10.709,265.433 10.709,265.656 10.827 C 265.833 10.922,266.171 11.000,266.406 11.000 C 266.694 11.000,266.840 11.095,266.855 11.292 C 266.866 11.452,266.922 12.408,266.980 13.417 L 267.083 15.250 267.708 15.302 L 268.333 15.353 268.348 16.635 C 268.376 19.128,268.493 19.551,269.202 19.718 L 269.820 19.863 269.869 21.219 C 269.912 22.432,269.956 22.594,270.291 22.760 C 271.252 23.239,271.333 23.432,271.333 25.258 C 271.333 27.114,271.361 27.167,272.342 27.167 L 272.823 27.167 272.870 29.292 L 272.917 31.417 273.625 31.468 L 274.333 31.519 274.333 33.354 C 274.333 35.452,274.462 35.833,275.173 35.833 C 275.645 35.833,275.667 35.866,275.667 36.560 C 275.667 36.960,275.714 37.635,275.773 38.060 L 275.879 38.833 280.898 38.824 C 287.546 38.811,287.460 38.850,287.487 35.896 L 287.500 34.543 288.145 34.440 C 288.907 34.318,288.995 34.028,288.998 31.625 L 289.000 30.167 289.488 30.167 C 290.304 30.167,290.500 29.809,290.500 28.321 C 290.500 27.031,290.510 27.000,290.907 27.000 C 291.626 27.000,291.833 26.450,291.833 24.546 L 291.833 22.833 292.383 22.833 C 293.209 22.833,293.333 22.601,293.333 21.050 L 293.333 19.667 293.813 19.667 C 294.584 19.667,294.722 19.327,294.802 17.237 L 294.875 15.333 295.502 15.333 C 296.244 15.333,296.328 15.147,296.331 13.488 C 296.333 12.425,296.348 12.387,296.855 12.155 C 297.535 11.844,297.828 10.986,297.831 9.292 L 297.833 8.000 298.407 8.000 C 299.138 8.000,299.181 7.917,299.291 6.309 C 299.371 5.141,299.428 4.956,299.740 4.837 C 300.470 4.560,300.580 4.219,300.642 2.058 L 300.701 -0.000 297.112 -0.000 L 293.523 0.000 293.470 0.373 C 293.438 0.595,293.282 0.767,293.083 0.796 C 292.290 0.915,292.000 1.017,292.000 1.178 C 292.000 1.272,291.794 1.527,291.542 1.744 L 291.083 2.139 291.433 2.528 C 292.290 3.479,292.139 5.120,291.188 5.199 L 290.583 5.250 290.536 6.987 C 290.485 8.821,290.237 9.366,289.381 9.530 C 289.127 9.579,289.076 9.800,289.035 11.044 L 288.987 12.500 288.505 12.500 C 287.699 12.500,287.500 12.862,287.500 14.324 L 287.500 15.625 287.018 15.721 C 286.380 15.849,286.000 16.930,286.000 18.617 L 286.000 19.842 285.504 19.941 C 284.758 20.090,284.681 20.284,284.543 22.348 L 284.417 24.250 283.833 24.333 L 283.250 24.417 283.202 25.875 C 283.155 27.288,283.141 27.333,282.755 27.333 C 282.164 27.333,281.857 27.745,281.724 28.715 C 281.631 29.401,281.584 29.496,281.505 29.167 C 281.423 28.829,281.286 28.740,280.785 28.698 L 280.167 28.647 280.150 26.948 C 280.127 24.642,280.056 24.429,279.285 24.365 L 278.667 24.313 278.667 22.901 C 278.667 21.184,278.382 20.386,277.676 20.119 C 277.183 19.933,277.178 19.918,277.131 18.508 L 277.083 17.084 276.375 16.935 L 275.667 16.786 275.667 14.744 C 275.667 12.556,275.644 12.500,274.761 12.500 C 274.395 12.500,274.380 12.437,274.288 10.575 C 274.185 8.482,274.057 8.167,273.313 8.167 L 272.833 8.167 272.833 6.930 C 272.833 5.556,272.739 5.167,272.406 5.167 C 271.687 5.167,271.346 4.385,271.297 2.623 L 271.250 0.917 270.583 0.833 C 270.050 0.767,269.906 0.675,269.863 0.375 L 269.810 0.000 265.405 0.000 L 261.000 0.000 261.000 0.417 C 261.000 0.789,260.932 0.833,260.357 0.833 L 259.714 0.833 259.607 1.858 C 259.548 2.421,259.500 3.233,259.500 3.662 C 259.500 4.492,259.028 5.167,258.448 5.167 C 258.199 5.167,258.167 5.413,258.167 7.333 L 258.167 9.500 257.680 9.500 C 256.718 9.500,256.667 9.581,256.667 11.101 L 256.667 12.500 256.179 12.500 C 255.299 12.500,255.167 12.814,255.167 14.910 L 255.167 16.796 254.542 16.913 C 253.713 17.069,253.672 17.165,253.669 18.951 C 253.667 20.534,253.306 21.333,252.595 21.333 C 252.293 21.333,252.172 21.868,252.169 23.208 C 252.167 24.262,252.143 24.333,251.792 24.336 C 250.968 24.341,250.701 25.164,250.675 27.773 L 250.667 28.630 250.042 28.709 C 249.259 28.807,249.167 28.754,249.164 28.198 C 249.161 27.580,249.005 27.394,248.375 27.258 L 247.833 27.140 247.831 25.945 C 247.828 24.522,247.765 24.398,246.972 24.249 L 246.361 24.135 246.305 22.144 C 246.246 19.998,246.178 19.841,245.310 19.836 L 244.869 19.833 244.808 17.902 C 244.742 15.818,244.598 15.500,243.725 15.500 C 243.364 15.500,243.344 15.433,243.298 14.042 L 243.250 12.583 242.547 12.532 L 241.843 12.481 241.797 10.366 L 241.750 8.250 241.125 8.198 L 240.500 8.147 240.488 6.782 C 240.466 4.341,240.351 3.942,239.625 3.762 L 239.000 3.608 239.000 2.399 C 239.000 1.227,238.780 0.667,238.321 0.667 C 238.236 0.667,238.167 0.517,238.167 0.333 C 238.167 0.009,238.056 0.000,234.167 0.000 L 230.167 0.000 230.167 1.571 M303.708 19.375 L 303.750 38.750 306.954 38.795 C 310.153 38.840,310.159 38.841,310.590 39.272 L 311.022 39.704 311.428 39.323 C 312.010 38.776,312.004 37.552,311.417 37.000 L 311.000 36.609 311.000 19.812 L 311.000 3.015 311.417 2.598 C 311.776 2.239,311.833 2.032,311.833 1.091 L 311.833 0.000 307.749 -0.000 L 303.665 -0.000 303.708 19.375 M315.500 19.417 L 315.500 38.833 319.167 38.833 L 322.833 38.833 322.833 24.124 L 322.833 9.414 323.583 9.474 L 324.333 9.534 324.333 10.267 L 324.333 11.000 324.987 11.000 L 325.640 11.000 325.758 12.105 C 325.883 13.269,326.226 13.833,326.810 13.833 C 327.040 13.833,327.158 14.016,327.268 14.542 C 327.407 15.206,327.455 15.253,328.033 15.301 C 328.627 15.351,328.650 15.377,328.699 16.051 C 328.750 16.745,328.755 16.750,329.458 16.801 L 330.167 16.852 330.167 17.593 L 330.167 18.333 330.917 18.333 L 331.667 18.333 331.667 19.428 C 331.667 20.834,331.843 21.167,332.589 21.167 C 333.160 21.167,333.167 21.175,333.167 21.899 C 333.167 22.669,333.326 22.833,334.076 22.833 C 334.392 22.833,334.476 22.947,334.564 23.500 C 334.667 24.144,334.693 24.167,335.311 24.167 L 335.952 24.167 336.063 25.363 C 336.190 26.730,336.348 27.000,337.020 27.000 C 337.450 27.000,337.500 27.057,337.503 27.542 C 337.506 28.280,337.648 28.450,338.375 28.587 C 338.966 28.697,339.000 28.738,339.000 29.334 C 339.000 30.018,339.181 30.167,340.014 30.167 C 340.470 30.167,340.500 30.208,340.500 30.833 C 340.500 31.498,340.502 31.500,341.156 31.500 C 341.874 31.500,341.917 31.600,342.042 33.578 C 342.080 34.194,342.127 34.250,342.708 34.386 C 343.222 34.507,343.333 34.606,343.333 34.944 C 343.333 35.666,343.625 36.000,344.256 36.000 C 344.816 36.000,344.833 36.020,344.833 36.649 C 344.833 37.352,345.009 37.500,345.847 37.500 C 346.304 37.500,346.333 37.541,346.333 38.169 L 346.333 38.838 351.458 38.794 L 356.583 38.750 356.626 19.375 L 356.668 0.000 353.001 0.000 L 349.333 0.000 349.307 15.125 C 349.292 23.444,349.250 29.988,349.214 29.667 C 349.140 29.015,348.794 28.667,348.218 28.667 C 347.916 28.667,347.833 28.575,347.833 28.239 C 347.833 27.505,347.546 27.167,346.920 27.167 C 346.371 27.167,346.351 27.143,346.301 26.458 C 346.250 25.753,346.247 25.750,345.542 25.699 C 344.848 25.649,344.833 25.635,344.821 25.032 C 344.799 23.969,344.456 23.269,343.871 23.093 C 343.397 22.950,343.344 22.865,343.299 22.176 L 343.250 21.417 342.542 21.365 L 341.833 21.314 341.833 20.574 L 341.833 19.833 341.176 19.833 C 340.522 19.833,340.519 19.830,340.468 19.125 C 340.417 18.420,340.413 18.416,339.708 18.365 L 339.000 18.314 338.998 17.282 C 338.994 15.684,338.907 15.500,338.157 15.500 C 337.526 15.500,337.519 15.493,337.468 14.792 C 337.417 14.087,337.413 14.083,336.708 14.032 L 336.000 13.981 336.000 13.240 L 336.000 12.500 335.250 12.500 L 334.500 12.500 334.500 11.161 C 334.500 10.236,334.436 9.803,334.292 9.759 C 334.177 9.723,333.877 9.649,333.625 9.594 C 333.280 9.519,333.167 9.395,333.167 9.094 C 333.167 8.350,333.000 8.167,332.325 8.167 C 331.692 8.167,331.685 8.160,331.635 7.458 C 331.584 6.753,331.580 6.750,330.875 6.699 L 330.167 6.648 330.150 5.699 C 330.124 4.226,329.996 3.940,329.285 3.762 C 328.710 3.619,328.667 3.564,328.667 2.988 C 328.667 2.316,328.482 2.167,327.653 2.167 C 327.199 2.167,327.167 2.123,327.167 1.519 C 327.167 0.839,326.948 0.674,326.042 0.669 C 325.779 0.667,325.667 0.567,325.667 0.333 C 325.667 0.007,325.556 0.000,320.583 0.000 L 315.500 0.000 315.500 19.417 M361.041 19.375 L 361.083 38.750 376.982 38.793 C 393.937 38.838,393.333 38.867,393.333 38.004 C 393.333 37.560,393.365 37.545,394.529 37.437 C 395.867 37.312,396.124 37.173,396.198 36.534 C 396.242 36.162,396.360 36.071,396.941 35.956 C 397.741 35.799,397.828 35.614,397.831 34.042 L 397.833 33.000 398.482 33.000 C 399.273 33.000,399.333 32.875,399.333 31.236 C 399.333 30.111,399.363 30.000,399.667 30.000 C 399.997 30.000,400.000 29.889,400.000 19.083 C 400.000 8.566,399.989 8.167,399.691 8.167 C 399.426 8.167,399.367 7.983,399.274 6.875 C 399.159 5.497,398.955 5.167,398.218 5.167 C 397.904 5.167,397.833 5.077,397.833 4.680 C 397.833 3.842,397.686 3.667,396.982 3.667 C 396.353 3.667,396.333 3.649,396.333 3.089 C 396.333 2.334,396.002 2.167,394.511 2.167 L 393.333 2.167 393.333 1.523 L 393.333 0.880 392.458 0.775 C 391.977 0.717,390.665 0.669,389.542 0.668 C 387.612 0.667,387.500 0.648,387.500 0.333 C 387.500 0.003,387.389 -0.000,374.249 -0.000 L 360.999 -0.000 361.041 19.375 M389.000 7.133 C 389.000 7.850,389.277 8.000,390.597 8.000 C 392.017 8.000,391.994 7.965,391.998 10.219 C 392.000 11.951,392.153 12.333,392.839 12.333 L 393.333 12.333 393.333 19.750 C 393.333 27.134,393.332 27.167,392.989 27.167 C 392.153 27.167,392.000 27.424,392.000 28.830 L 392.000 30.148 391.292 30.199 C 390.608 30.248,390.582 30.271,390.533 30.858 L 390.482 31.467 389.154 31.584 C 387.759 31.708,387.500 31.876,387.500 32.656 C 387.500 33.000,387.491 33.000,377.917 33.000 L 368.333 33.000 368.333 19.833 L 368.333 6.667 378.667 6.667 L 389.000 6.667 389.000 7.133 M23.875 13.537 C 23.297 14.156,23.345 14.794,23.930 14.253 C 24.196 14.006,24.338 13.717,24.305 13.495 C 24.250 13.136,24.250 13.136,23.875 13.537 M25.288 21.707 C 25.797 22.238,25.833 22.233,25.719 21.644 C 25.655 21.308,25.542 21.209,25.243 21.227 L 24.851 21.250 25.288 21.707 M53.005 22.516 C 52.999 23.039,53.466 23.500,54.003 23.500 C 54.374 23.500,54.379 23.487,54.090 23.275 C 53.921 23.152,53.836 22.964,53.901 22.859 C 53.976 22.738,53.895 22.667,53.685 22.667 C 53.501 22.667,53.273 22.535,53.180 22.375 C 53.033 22.123,53.009 22.142,53.005 22.516 M34.167 26.083 C 34.630 26.577,35.703 26.656,36.296 26.241 C 36.939 25.790,36.708 25.667,35.221 25.667 L 33.775 25.667 34.167 26.083 M0.000 26.833 C 0.000 27.056,0.111 27.167,0.333 27.167 C 0.556 27.167,0.667 27.056,0.667 26.833 C 0.667 26.611,0.556 26.500,0.333 26.500 C 0.111 26.500,0.000 26.611,0.000 26.833 M14.000 27.997 C 14.000 28.548,14.071 28.838,14.208 28.847 C 14.323 28.854,14.623 28.876,14.875 28.894 C 15.833 28.964,15.459 27.509,14.458 27.270 C 14.005 27.161,14.000 27.169,14.000 27.997 M64.833 28.827 C 64.833 28.916,64.983 29.069,65.167 29.167 C 65.449 29.318,65.500 29.293,65.500 29.006 C 65.500 28.778,65.391 28.667,65.167 28.667 C 64.983 28.667,64.833 28.739,64.833 28.827 M66.173 30.973 C 66.303 32.157,66.706 32.510,67.297 31.958 C 67.691 31.590,67.692 31.582,67.349 31.530 C 67.065 31.487,67.000 31.358,67.000 30.841 C 67.000 30.272,66.951 30.197,66.537 30.136 L 66.073 30.068 66.173 30.973 M69.167 35.308 C 69.167 35.903,69.254 36.194,69.500 36.417 C 69.830 36.715,69.833 36.708,69.833 35.609 C 69.833 34.611,69.800 34.500,69.500 34.500 C 69.213 34.500,69.167 34.611,69.167 35.308 M20.167 39.409 C 20.396 39.536,20.572 39.702,20.558 39.778 C 20.545 39.854,20.610 39.895,20.704 39.868 C 20.798 39.842,20.828 39.939,20.772 40.085 C 20.713 40.239,20.740 40.308,20.835 40.249 C 21.217 40.013,20.590 39.161,20.042 39.173 C 19.821 39.177,19.851 39.234,20.167 39.409 M48.297 40.708 C 48.151 40.823,47.981 41.160,47.919 41.458 L 47.807 42.000 48.570 42.000 L 49.333 42.000 49.333 41.250 C 49.333 40.441,48.917 40.224,48.297 40.708 M72.101 43.403 C 72.281 43.872,72.833 44.076,72.833 43.673 C 72.833 43.486,72.764 43.333,72.680 43.333 C 72.596 43.333,72.408 43.287,72.262 43.231 C 72.066 43.156,72.024 43.201,72.101 43.403 M47.333 45.917 L 46.942 46.333 47.388 46.333 C 47.752 46.333,47.833 46.257,47.833 45.917 C 47.833 45.688,47.809 45.500,47.779 45.500 C 47.749 45.500,47.549 45.688,47.333 45.917 M45.958 48.685 C 45.599 48.888,45.580 49.387,45.921 49.670 C 46.265 49.956,46.365 49.810,46.303 49.110 C 46.257 48.603,46.209 48.544,45.958 48.685 M73.034 49.292 C 73.354 50.051,73.791 50.442,74.040 50.192 C 74.209 50.021,74.196 50.001,73.969 50.087 C 73.758 50.167,73.600 50.024,73.340 49.514 C 72.948 48.745,72.739 48.594,73.034 49.292 M1.113 49.276 C 1.052 49.337,1.096 49.501,1.210 49.642 C 1.348 49.812,1.352 49.859,1.223 49.781 C 1.101 49.708,1.046 49.773,1.076 49.958 C 1.103 50.130,1.251 50.238,1.436 50.221 C 1.742 50.192,1.742 50.197,1.434 50.424 C 1.260 50.551,1.059 50.620,0.988 50.576 C 0.819 50.472,1.152 51.702,1.349 51.908 C 1.432 51.995,1.500 52.463,1.500 52.948 C 1.500 53.791,1.529 53.848,2.167 54.270 C 2.533 54.512,2.833 54.777,2.833 54.857 C 2.833 55.089,3.794 56.032,3.880 55.884 C 3.922 55.810,3.921 55.600,3.876 55.417 C 3.832 55.233,3.759 54.727,3.715 54.292 L 3.634 53.500 2.984 53.500 C 2.343 53.500,2.195 53.302,2.319 52.607 C 2.334 52.529,2.277 52.379,2.194 52.274 C 2.111 52.169,2.064 51.955,2.089 51.799 C 2.150 51.423,1.745 51.072,1.572 51.351 C 1.489 51.487,1.519 51.508,1.667 51.417 C 1.812 51.327,1.845 51.347,1.764 51.477 C 1.600 51.744,1.288 51.525,1.403 51.224 C 1.455 51.089,1.423 51.028,1.331 51.085 C 1.241 51.141,1.167 51.068,1.167 50.922 C 1.167 50.764,1.361 50.619,1.651 50.561 C 2.424 50.407,2.504 49.167,1.741 49.167 C 1.455 49.167,1.173 49.216,1.113 49.276 M76.602 49.569 C 76.672 49.754,76.658 49.848,76.568 49.792 C 76.483 49.739,76.280 49.793,76.118 49.912 C 75.876 50.089,75.866 50.144,76.063 50.219 C 76.426 50.358,76.949 49.716,76.686 49.454 C 76.523 49.292,76.506 49.316,76.602 49.569 M28.669 55.534 C 28.672 56.186,28.889 56.588,29.151 56.427 C 29.254 56.363,29.296 56.240,29.243 56.155 C 29.190 56.070,29.226 56.000,29.323 56.000 C 29.421 56.000,29.500 56.112,29.500 56.250 C 29.500 56.387,29.574 56.500,29.663 56.500 C 29.753 56.500,29.799 56.259,29.764 55.964 C 29.725 55.621,29.792 55.362,29.951 55.246 C 30.145 55.103,30.033 55.055,29.433 55.024 C 28.669 54.985,28.667 54.986,28.669 55.534 M5.647 56.737 C 5.636 56.836,5.640 56.985,5.656 57.068 C 5.671 57.151,5.587 57.281,5.467 57.357 C 5.313 57.455,5.308 57.496,5.450 57.497 C 5.560 57.499,5.718 57.378,5.802 57.229 C 5.906 57.043,5.991 57.017,6.070 57.145 C 6.254 57.443,6.593 57.364,6.620 57.017 C 6.646 56.672,5.685 56.395,5.647 56.737 M68.333 56.833 C 68.333 57.211,68.506 57.260,68.800 56.967 C 69.094 56.673,69.044 56.500,68.667 56.500 C 68.444 56.500,68.333 56.611,68.333 56.833 M44.429 57.595 C 44.129 57.894,44.127 57.921,44.400 57.973 C 44.561 58.004,44.731 57.991,44.778 57.944 C 44.825 57.898,44.837 57.728,44.806 57.567 C 44.754 57.294,44.728 57.296,44.429 57.595 M110.042 58.171 C 109.754 58.287,109.667 58.457,109.667 58.902 C 109.667 59.464,109.646 59.482,108.958 59.532 C 108.253 59.583,108.250 59.587,108.199 60.292 C 108.152 60.936,108.107 61.000,107.699 61.003 C 106.714 61.008,106.750 60.754,106.750 67.619 L 106.750 73.917 107.458 74.074 C 108.144 74.226,108.167 74.252,108.167 74.881 C 108.167 75.391,108.239 75.550,108.500 75.618 C 108.684 75.667,108.833 75.846,108.833 76.019 C 108.833 76.322,109.104 76.333,116.583 76.333 C 124.222 76.333,124.333 76.329,124.333 76.000 C 124.333 75.723,124.444 75.667,124.991 75.667 L 125.648 75.667 125.699 74.875 C 125.748 74.116,125.772 74.081,126.291 74.031 C 126.624 73.999,126.901 73.851,127.010 73.648 C 127.275 73.152,127.149 67.415,126.867 67.133 C 126.701 66.967,125.439 66.905,121.462 66.868 L 116.274 66.819 115.860 66.406 L 115.447 65.992 115.057 66.358 C 114.486 66.894,114.501 68.195,115.083 68.735 C 115.441 69.066,115.500 69.267,115.500 70.144 L 115.500 71.167 118.417 71.167 L 121.333 71.167 121.333 71.917 L 121.333 72.667 116.917 72.667 L 112.500 72.667 112.500 67.500 L 112.500 62.333 116.917 62.333 L 121.333 62.333 121.333 63.646 C 121.333 65.414,121.266 65.377,124.334 65.307 C 127.338 65.239,127.194 65.355,127.131 63.035 C 127.079 61.179,126.994 61.007,126.125 61.003 C 125.693 61.000,125.667 60.956,125.667 60.250 L 125.667 59.500 125.032 59.500 C 124.421 59.500,124.391 59.474,124.240 58.792 L 124.083 58.083 117.250 58.051 C 113.445 58.033,110.250 58.086,110.042 58.171 M130.924 58.144 C 130.200 58.301,130.201 58.277,130.183 67.708 L 130.167 76.333 133.083 76.333 L 136.000 76.333 136.000 73.750 L 136.000 71.167 139.750 71.167 L 143.500 71.167 143.500 73.750 L 143.500 76.333 146.417 76.333 L 149.333 76.333 149.333 73.190 C 149.333 69.312,149.241 68.521,148.767 68.329 C 148.476 68.212,148.467 68.186,148.712 68.177 C 148.875 68.171,149.081 67.974,149.171 67.739 C 149.389 67.167,149.385 61.218,149.167 61.083 C 149.075 61.027,149.000 60.799,149.000 60.577 C 149.000 60.022,148.330 59.624,147.243 59.534 L 146.351 59.460 146.300 58.772 L 146.250 58.083 138.833 58.061 C 134.754 58.048,131.195 58.086,130.924 58.144 M155.625 58.115 C 155.436 58.164,155.297 58.421,155.229 58.846 C 155.128 59.473,155.098 59.500,154.497 59.500 C 153.737 59.500,153.667 59.641,153.667 61.162 C 153.667 62.367,153.576 62.500,152.756 62.500 C 152.195 62.500,152.171 62.725,152.169 68.104 C 152.166 73.985,152.160 73.941,153.019 74.086 C 153.639 74.191,153.667 74.223,153.667 74.830 C 153.667 75.518,153.847 75.667,154.680 75.667 C 155.056 75.667,155.167 75.743,155.167 76.000 C 155.167 76.328,155.278 76.333,162.500 76.333 L 169.833 76.333 169.833 75.930 C 169.833 75.617,169.946 75.502,170.335 75.416 C 171.244 75.217,171.250 75.164,171.250 67.833 L 171.250 61.083 170.542 61.032 L 169.833 60.981 169.833 60.240 L 169.833 59.500 169.083 59.500 L 168.333 59.500 168.333 58.851 C 168.333 58.413,168.248 58.169,168.070 58.101 C 167.769 57.986,156.070 57.999,155.625 58.115 M175.872 58.287 C 175.805 58.450,175.750 62.183,175.750 66.583 C 175.750 75.320,175.738 75.213,176.712 75.464 C 177.083 75.560,177.267 75.716,177.303 75.968 L 177.357 76.333 185.345 76.333 L 193.333 76.333 193.333 75.917 C 193.333 75.574,193.415 75.500,193.792 75.497 C 194.802 75.492,194.750 75.970,194.750 66.631 L 194.750 58.083 192.625 58.037 L 190.500 57.990 190.500 65.328 L 190.500 72.667 186.000 72.667 L 181.500 72.667 181.500 72.262 C 181.500 71.744,181.089 71.333,180.571 71.333 L 180.167 71.333 180.167 65.776 C 180.167 60.430,180.179 60.207,180.500 59.917 C 180.917 59.539,180.923 59.248,180.520 58.966 C 180.348 58.845,180.178 58.597,180.143 58.415 C 180.050 57.930,176.067 57.810,175.872 58.287 M198.500 58.116 C 197.839 58.352,197.833 58.426,197.833 67.532 L 197.833 76.333 200.750 76.333 L 203.667 76.333 203.667 73.750 L 203.667 71.167 208.661 71.167 C 214.172 71.167,214.000 71.201,214.000 70.104 C 214.000 69.731,214.077 69.680,214.708 69.635 C 215.413 69.584,215.417 69.580,215.468 68.875 C 215.513 68.255,215.569 68.167,215.914 68.167 C 216.794 68.167,216.858 67.900,216.802 64.472 C 216.746 61.101,216.722 61.008,215.875 61.003 C 215.572 61.000,215.500 60.906,215.500 60.514 C 215.500 59.676,215.352 59.500,214.649 59.500 C 214.026 59.500,214.000 59.478,214.000 58.950 C 214.000 58.647,213.910 58.310,213.800 58.200 C 213.596 57.996,199.059 57.916,198.500 58.116 M28.040 58.573 C 28.108 58.654,28.071 58.839,27.957 58.985 C 27.778 59.215,27.786 59.222,28.020 59.040 C 28.240 58.868,28.327 58.875,28.497 59.080 C 28.669 59.287,28.643 59.353,28.343 59.464 L 27.981 59.598 28.324 59.908 C 28.655 60.208,28.678 60.208,29.000 59.917 C 29.438 59.521,29.420 59.303,28.917 58.864 C 28.688 58.665,28.500 58.586,28.500 58.688 C 28.500 58.811,28.401 58.798,28.208 58.651 C 28.048 58.528,27.972 58.493,28.040 58.573 M41.292 61.347 C 41.131 61.440,40.884 61.757,40.743 62.050 L 40.486 62.583 40.951 62.067 C 41.207 61.783,41.567 61.467,41.750 61.364 C 41.980 61.235,42.006 61.177,41.833 61.177 C 41.696 61.177,41.452 61.253,41.292 61.347 M15.500 62.718 C 15.500 62.930,15.594 63.227,15.708 63.379 C 15.943 63.691,17.459 64.005,17.273 63.704 C 17.211 63.604,17.237 63.476,17.331 63.418 C 17.424 63.361,17.500 63.435,17.500 63.583 C 17.500 63.732,17.576 63.806,17.669 63.748 C 17.763 63.691,17.797 63.575,17.745 63.492 C 17.693 63.408,17.720 63.207,17.803 63.045 C 18.094 62.479,17.859 62.333,16.653 62.333 C 15.560 62.333,15.500 62.353,15.500 62.718 M65.500 62.667 C 65.500 62.850,65.572 63.000,65.661 63.000 C 65.749 63.000,65.902 62.850,66.000 62.667 C 66.151 62.384,66.127 62.333,65.839 62.333 C 65.611 62.333,65.500 62.443,65.500 62.667 M143.453 63.042 C 143.584 63.709,143.628 63.753,144.213 63.802 C 144.828 63.853,144.833 63.860,144.833 64.593 L 144.833 65.333 140.417 65.333 L 136.000 65.333 136.000 63.833 L 136.000 62.333 139.657 62.333 L 143.314 62.333 143.453 63.042 M165.532 63.042 C 165.582 63.729,165.602 63.752,166.208 63.802 L 166.833 63.853 166.833 67.599 C 166.833 71.015,166.808 71.353,166.542 71.447 C 166.064 71.617,165.667 72.031,165.667 72.359 C 165.667 72.649,165.451 72.667,161.917 72.667 L 158.167 72.667 158.167 67.500 L 158.167 62.333 161.824 62.333 L 165.481 62.333 165.532 63.042 M211.000 64.583 L 211.000 66.833 207.333 66.833 L 203.667 66.833 203.667 64.583 L 203.667 62.333 207.333 62.333 L 211.000 62.333 211.000 64.583 M20.580 62.778 C 20.507 62.946,20.462 63.149,20.480 63.229 C 20.499 63.309,20.379 63.323,20.215 63.261 C 19.974 63.169,19.957 63.188,20.127 63.359 C 20.405 63.639,21.063 63.036,20.851 62.694 C 20.743 62.520,20.684 62.538,20.580 62.778 M7.513 63.605 C 7.025 64.225,6.761 65.292,6.978 65.768 C 7.191 66.235,7.778 66.594,7.778 66.257 C 7.778 66.133,7.692 66.065,7.587 66.105 C 7.130 66.280,6.910 65.342,7.256 64.695 C 7.531 64.183,7.928 63.884,7.792 64.292 C 7.769 64.360,7.688 64.396,7.613 64.371 C 7.537 64.346,7.521 64.399,7.576 64.489 C 7.707 64.700,8.114 64.543,8.232 64.237 C 8.282 64.107,8.488 64.000,8.690 64.000 L 9.058 64.000 8.667 63.583 C 8.170 63.055,7.942 63.059,7.513 63.605 M34.196 66.342 C 33.750 66.757,33.744 66.833,34.155 66.833 C 34.335 66.833,34.526 66.680,34.587 66.487 C 34.743 65.998,34.616 65.950,34.196 66.342 M58.544 70.322 C 58.216 70.596,58.205 70.646,58.449 70.739 C 58.604 70.799,58.838 70.733,58.982 70.589 C 59.166 70.405,59.179 70.333,59.026 70.333 C 58.909 70.333,58.860 70.258,58.917 70.167 C 59.064 69.928,58.969 69.968,58.544 70.322 M53.667 73.000 C 53.667 73.378,53.840 73.427,54.133 73.133 C 54.427 72.840,54.378 72.667,54.000 72.667 C 53.778 72.667,53.667 72.778,53.667 73.000 " stroke="none" fill="#fcfcfc" fill-rule="evenodd"></path><path id="path1" d="M24.333 0.398 C 24.333 0.786,24.298 0.796,23.042 0.779 C 21.515 0.758,21.333 0.842,21.333 1.573 C 21.333 2.124,21.329 2.127,20.375 2.225 C 18.580 2.410,18.624 2.392,18.557 3.000 C 18.482 3.692,18.518 3.660,17.734 3.723 C 17.099 3.775,17.082 3.793,17.032 4.471 L 16.981 5.167 16.240 5.167 L 15.500 5.167 15.500 5.917 L 15.500 6.667 14.333 6.667 C 13.591 6.667,13.167 6.734,13.167 6.851 C 13.167 6.953,13.063 6.996,12.937 6.948 C 12.811 6.899,12.711 6.948,12.714 7.055 C 12.741 8.017,12.674 8.125,11.932 8.312 C 11.329 8.464,11.212 8.555,11.281 8.816 C 11.386 9.220,10.741 9.897,10.383 9.760 C 10.241 9.706,10.021 9.746,9.896 9.851 C 9.624 10.076,9.586 10.403,9.850 10.240 C 10.125 10.070,9.663 10.878,9.348 11.118 C 9.202 11.229,8.958 11.282,8.806 11.236 C 8.653 11.191,8.473 11.243,8.405 11.352 C 8.322 11.486,8.359 11.512,8.516 11.430 C 8.645 11.363,8.619 11.416,8.458 11.548 C 8.298 11.679,8.167 11.947,8.167 12.143 C 8.167 12.392,8.063 12.500,7.823 12.500 C 7.635 12.500,7.522 12.568,7.574 12.651 C 7.625 12.734,7.525 12.765,7.352 12.720 C 7.179 12.675,6.980 12.731,6.910 12.845 C 6.822 12.987,6.855 13.013,7.016 12.930 C 7.145 12.863,7.119 12.916,6.958 13.048 C 6.734 13.232,6.667 13.542,6.667 14.393 L 6.667 15.500 5.917 15.500 L 5.167 15.500 5.167 16.234 C 5.167 16.895,5.132 16.960,4.822 16.879 C 4.276 16.736,3.689 17.140,3.707 17.647 C 3.716 17.887,3.710 18.473,3.695 18.949 L 3.667 19.814 2.958 19.865 C 2.169 19.923,2.215 19.803,2.182 21.875 L 2.167 22.833 1.518 22.833 L 0.869 22.833 0.766 24.292 C 0.710 25.094,0.676 25.863,0.691 26.000 C 0.777 26.771,0.656 27.167,0.333 27.167 C 0.004 27.167,0.000 27.278,0.000 37.417 C 0.000 47.321,0.011 47.667,0.312 47.667 C 0.584 47.667,0.634 47.834,0.699 48.968 C 0.777 50.318,0.907 50.744,1.186 50.571 C 1.287 50.509,1.267 50.368,1.133 50.203 C 1.002 50.041,0.993 49.982,1.110 50.052 C 1.315 50.175,1.323 49.882,1.125 49.565 C 1.061 49.463,1.057 49.332,1.116 49.273 C 1.276 49.113,2.366 49.145,2.266 49.307 C 2.218 49.384,2.166 49.947,2.149 50.557 C 2.114 51.837,2.105 51.847,1.665 51.125 C 1.483 50.827,1.334 50.671,1.334 50.779 C 1.334 50.886,1.530 51.209,1.771 51.495 C 2.047 51.822,2.240 52.291,2.293 52.758 C 2.376 53.494,2.382 53.500,3.022 53.500 C 3.664 53.500,3.667 53.503,3.667 54.172 C 3.667 54.621,3.751 54.876,3.922 54.942 C 4.145 55.027,4.142 55.065,3.896 55.244 C 3.691 55.394,3.670 55.482,3.816 55.573 C 3.962 55.663,3.967 55.755,3.833 55.917 C 3.700 56.078,3.704 56.170,3.851 56.261 C 3.978 56.339,4.008 56.314,3.933 56.192 C 3.867 56.087,3.885 56.000,3.972 56.000 C 4.060 56.000,4.174 56.112,4.227 56.250 C 4.280 56.387,4.513 56.500,4.745 56.500 C 5.111 56.500,5.167 56.573,5.167 57.050 C 5.167 57.745,5.421 58.000,6.117 58.000 C 6.570 58.000,6.670 58.066,6.686 58.375 C 6.696 58.581,6.715 58.862,6.728 58.999 C 6.741 59.150,7.028 59.306,7.458 59.397 C 7.984 59.509,8.167 59.627,8.167 59.857 C 8.167 60.027,8.301 60.298,8.466 60.458 C 8.773 60.757,8.865 60.783,10.184 60.944 C 10.901 61.032,10.960 61.077,11.100 61.644 L 11.250 62.250 14.542 62.295 C 17.838 62.340,17.967 62.365,17.832 62.917 C 17.618 63.793,17.653 63.832,18.616 63.810 C 19.467 63.790,19.590 63.734,20.257 63.067 L 20.979 62.346 22.614 62.298 L 24.250 62.250 24.302 61.625 L 24.353 61.000 25.333 61.000 C 26.778 61.000,27.167 60.807,27.167 60.087 C 27.167 59.546,27.206 59.500,27.667 59.500 C 27.942 59.500,28.167 59.417,28.167 59.316 C 28.167 59.213,28.288 59.178,28.440 59.236 C 28.670 59.324,28.680 59.300,28.501 59.085 C 28.348 58.900,28.230 58.878,28.076 59.006 C 27.926 59.131,27.830 59.130,27.752 59.004 C 27.692 58.906,27.741 58.846,27.863 58.871 C 27.984 58.896,28.060 58.810,28.032 58.680 C 27.991 58.490,28.029 58.484,28.227 58.647 C 28.581 58.941,28.677 58.514,28.689 56.599 L 28.699 55.000 29.256 55.000 C 29.563 55.000,29.860 55.075,29.917 55.167 C 29.973 55.258,29.945 55.333,29.855 55.333 C 29.764 55.333,29.717 55.540,29.750 55.792 C 29.783 56.044,29.816 56.311,29.822 56.385 C 29.828 56.459,29.900 56.478,29.982 56.428 C 30.064 56.377,30.142 54.464,30.156 52.177 C 30.183 47.586,30.154 47.466,29.068 47.739 C 28.668 47.839,28.513 47.030,28.660 45.615 C 28.709 45.141,28.343 44.833,27.730 44.833 C 27.204 44.833,27.167 44.797,27.167 44.283 C 27.167 43.590,26.912 43.333,26.227 43.333 C 25.730 43.333,25.683 43.286,25.635 42.747 C 25.607 42.424,25.539 42.180,25.484 42.205 C 25.429 42.230,25.279 42.169,25.151 42.071 C 25.022 41.972,24.476 41.876,23.937 41.859 C 22.766 41.820,22.693 41.784,22.776 41.296 C 22.882 40.677,22.595 40.437,21.715 40.408 C 20.691 40.375,19.834 39.627,19.801 38.738 C 19.789 38.431,19.724 38.215,19.655 38.257 C 19.587 38.299,19.568 38.192,19.613 38.019 C 19.723 37.601,19.425 37.439,18.983 37.676 C 18.735 37.808,18.661 37.811,18.740 37.683 C 18.804 37.580,18.740 37.500,18.593 37.500 C 18.402 37.500,18.333 37.328,18.333 36.851 C 18.333 36.148,18.158 36.000,17.320 36.000 L 16.833 36.000 16.833 34.583 C 16.833 33.804,16.777 33.158,16.708 33.148 C 16.640 33.137,16.368 33.104,16.106 33.073 C 15.471 32.999,15.517 33.166,15.489 30.856 C 15.465 28.868,15.456 28.818,15.162 29.133 C 14.957 29.353,14.719 29.432,14.429 29.377 L 14.000 29.294 14.000 25.963 C 14.000 23.001,14.029 22.642,14.262 22.732 C 15.149 23.072,15.498 22.033,15.499 19.052 L 15.500 16.853 16.125 16.802 L 16.750 16.750 16.798 15.375 L 16.847 14.000 17.326 14.000 C 18.281 14.000,18.333 13.917,18.333 12.399 L 18.333 11.000 19.083 11.000 L 19.833 11.000 19.833 10.250 L 19.833 9.500 20.482 9.500 C 21.186 9.500,21.333 9.324,21.333 8.486 C 21.333 8.043,21.384 8.000,21.911 8.000 C 22.523 8.000,22.833 7.668,22.833 7.011 C 22.833 6.741,22.939 6.667,23.321 6.667 C 23.940 6.667,24.333 6.278,24.333 5.665 C 24.333 5.233,24.393 5.182,24.958 5.135 C 25.562 5.085,25.585 5.060,25.634 4.394 L 25.684 3.704 26.717 3.616 C 28.043 3.503,28.413 3.421,28.430 3.234 C 28.438 3.151,28.504 2.869,28.578 2.607 C 28.671 2.277,28.628 1.957,28.439 1.560 C 28.289 1.246,28.167 0.766,28.167 0.494 L 28.167 0.000 26.250 0.000 C 24.340 0.000,24.333 0.001,24.333 0.398 M20.385 40.062 C 20.428 40.174,20.322 40.276,20.148 40.289 C 19.941 40.304,19.833 40.204,19.833 39.995 C 19.833 39.651,20.247 39.701,20.385 40.062 M76.333 49.417 C 75.898 49.880,73.952 50.063,74.042 49.633 C 74.065 49.522,74.008 49.427,73.917 49.422 C 73.825 49.416,73.649 49.347,73.525 49.269 C 73.343 49.154,73.336 49.193,73.487 49.476 C 73.980 50.397,75.556 50.455,76.428 49.583 C 76.749 49.262,76.947 49.000,76.868 49.000 C 76.789 49.000,76.549 49.188,76.333 49.417 M6.620 57.017 C 6.593 57.364,6.254 57.443,6.070 57.145 C 5.991 57.017,5.906 57.043,5.802 57.229 C 5.718 57.378,5.560 57.499,5.450 57.497 C 5.308 57.496,5.313 57.455,5.467 57.357 C 5.587 57.281,5.671 57.151,5.656 57.068 C 5.581 56.670,5.702 56.563,6.155 56.629 C 6.510 56.681,6.637 56.788,6.620 57.017 M41.565 61.632 C 41.465 61.697,41.301 61.906,41.201 62.097 C 40.960 62.554,41.375 62.581,41.779 62.135 C 42.072 61.811,41.903 61.413,41.565 61.632 M41.667 62.083 C 41.549 62.225,41.415 62.304,41.369 62.258 C 41.323 62.212,41.382 62.059,41.500 61.917 C 41.618 61.775,41.752 61.696,41.798 61.742 C 41.843 61.788,41.784 61.941,41.667 62.083 M20.500 62.474 C 20.500 62.672,19.836 63.252,19.821 63.067 C 19.814 62.985,19.783 62.785,19.752 62.625 C 19.711 62.412,19.805 62.333,20.098 62.333 C 20.319 62.333,20.500 62.397,20.500 62.474 M9.208 63.948 C 9.369 63.990,9.631 63.990,9.792 63.948 C 9.952 63.906,9.821 63.872,9.500 63.872 C 9.179 63.872,9.048 63.906,9.208 63.948 M7.629 64.458 C 7.035 65.135,7.286 66.173,8.042 66.164 C 8.197 66.162,8.194 66.126,8.027 66.020 C 7.905 65.943,7.811 65.813,7.819 65.731 C 7.827 65.650,7.746 65.583,7.639 65.583 C 7.532 65.583,7.410 65.479,7.367 65.352 C 7.323 65.219,7.365 65.167,7.467 65.230 C 7.564 65.290,7.698 65.251,7.764 65.144 C 7.840 65.022,7.813 64.993,7.692 65.067 C 7.421 65.235,7.454 64.974,7.759 64.537 C 8.069 64.095,7.990 64.048,7.629 64.458 M58.552 70.095 C 58.354 70.318,58.250 70.500,58.320 70.500 C 58.491 70.500,59.073 69.851,58.983 69.761 C 58.944 69.722,58.751 69.873,58.552 70.095 " stroke="none" fill="#1a99b1" fill-rule="evenodd"></path><path id="path2" d="M23.000 0.316 C 23.000 0.661,23.309 0.833,23.930 0.833 C 24.249 0.833,24.333 0.746,24.333 0.417 C 24.333 0.042,24.267 0.000,23.667 0.000 C 23.124 0.000,23.000 0.059,23.000 0.316 M39.000 0.314 C 39.000 0.601,38.804 0.637,36.708 0.734 C 32.881 0.912,33.250 0.831,33.250 1.500 C 33.250 1.961,33.180 2.090,32.917 2.116 C 32.733 2.134,32.072 2.197,31.446 2.256 C 30.542 2.341,30.328 2.413,30.403 2.607 C 30.455 2.743,30.424 2.806,30.331 2.749 C 30.237 2.690,30.167 2.863,30.167 3.157 C 30.167 3.680,30.121 3.707,29.167 3.737 C 28.841 3.747,28.747 3.841,28.737 4.167 C 28.707 5.126,28.692 5.146,27.958 5.199 L 27.250 5.250 27.305 6.792 L 27.360 8.333 26.609 8.333 C 26.034 8.333,25.840 8.265,25.782 8.042 C 25.740 7.881,25.697 8.177,25.686 8.699 C 25.668 9.590,25.644 9.643,25.292 9.572 C 25.085 9.530,24.767 9.563,24.583 9.644 C 24.400 9.725,24.042 9.875,23.788 9.977 C 22.779 10.383,22.972 12.167,24.026 12.167 C 24.544 12.167,24.461 13.760,23.917 14.265 C 23.503 14.648,23.500 14.649,23.500 14.298 C 23.500 13.782,23.326 14.039,23.153 14.812 C 22.953 15.701,23.191 16.301,23.832 16.525 L 24.333 16.699 24.359 18.475 C 24.374 19.451,24.371 20.419,24.353 20.627 C 24.313 21.082,25.065 21.458,25.422 21.162 C 25.717 20.917,25.870 21.200,25.812 21.882 C 25.748 22.619,25.922 22.833,26.583 22.833 C 27.114 22.833,27.150 22.870,27.198 23.458 C 27.249 24.073,27.262 24.084,28.012 24.133 C 28.752 24.181,28.771 24.196,28.701 24.676 C 28.556 25.665,28.563 25.667,33.919 25.667 C 39.271 25.667,39.000 25.721,39.000 24.653 L 39.000 24.167 40.417 24.167 L 41.833 24.167 41.833 23.500 C 41.833 22.713,41.983 22.659,42.354 23.311 C 42.834 24.154,44.211 24.128,44.426 23.271 C 44.509 22.942,44.678 22.837,45.306 22.723 C 46.026 22.592,46.095 22.535,46.238 21.957 L 46.392 21.333 47.904 21.334 C 49.405 21.335,49.419 21.339,49.697 21.828 C 50.198 22.708,51.487 22.662,51.833 21.752 C 52.062 21.148,52.443 21.230,52.571 21.911 C 52.689 22.537,52.997 22.874,53.005 22.385 C 53.010 22.100,53.020 22.100,53.180 22.375 C 53.397 22.748,53.621 22.748,53.718 22.375 C 53.791 22.097,53.796 22.097,53.814 22.375 C 53.825 22.535,53.927 22.668,54.042 22.669 C 54.181 22.671,54.168 22.727,54.000 22.839 C 53.784 22.984,53.793 23.040,54.074 23.253 C 54.394 23.498,54.394 23.500,54.074 23.514 C 53.311 23.545,54.803 23.985,55.697 23.992 C 56.882 24.002,57.450 23.792,57.695 23.253 C 57.975 22.639,58.167 22.740,58.167 23.500 L 58.167 24.167 59.583 24.167 C 61.135 24.167,61.006 24.072,61.066 25.250 C 61.080 25.527,61.219 25.592,61.889 25.635 C 62.501 25.674,62.673 25.743,62.605 25.921 C 62.555 26.050,62.588 26.201,62.678 26.257 C 62.768 26.313,62.831 26.296,62.818 26.221 C 62.744 25.794,62.882 25.667,63.417 25.667 C 63.972 25.667,64.000 25.695,64.000 26.247 C 64.000 26.852,64.096 26.917,65.167 27.037 C 65.529 27.077,65.590 27.176,65.635 27.792 C 65.681 28.436,65.726 28.500,66.135 28.503 C 66.888 28.507,66.985 28.674,66.981 29.960 C 66.976 31.403,67.025 31.500,67.760 31.500 C 68.386 31.500,68.345 31.385,68.424 33.333 C 68.469 34.449,68.489 34.500,68.875 34.497 C 69.100 34.496,69.173 34.446,69.057 34.372 C 68.951 34.305,68.811 33.968,68.747 33.625 L 68.630 33.000 69.336 33.000 L 70.043 33.000 69.931 34.135 C 69.784 35.630,69.874 35.833,70.684 35.833 C 71.330 35.833,71.333 35.837,71.333 36.499 C 71.333 37.223,71.153 37.288,70.355 36.850 C 70.138 36.731,70.008 36.711,70.066 36.805 C 70.124 36.900,70.105 37.019,70.022 37.070 C 69.752 37.237,70.379 38.312,70.865 38.513 C 71.359 38.718,71.509 39.167,71.083 39.167 C 70.642 39.167,70.167 39.802,70.167 40.391 C 70.167 40.985,70.579 41.500,71.055 41.500 C 71.208 41.500,71.333 41.625,71.333 41.778 C 71.333 42.311,71.513 41.871,71.561 41.218 C 71.626 40.345,71.759 40.167,72.343 40.167 L 72.833 40.167 72.833 43.167 L 72.833 46.167 73.659 46.131 C 74.112 46.111,74.506 46.130,74.534 46.172 C 74.803 46.593,75.332 47.864,75.421 48.303 C 75.542 48.908,75.974 49.170,76.667 49.059 C 76.896 49.023,77.007 49.051,76.913 49.121 C 76.819 49.192,76.609 49.460,76.446 49.716 C 75.978 50.451,74.100 50.338,73.565 49.543 C 73.271 49.106,73.181 49.055,73.097 49.275 C 73.039 49.425,73.031 49.587,73.079 49.635 C 73.127 49.683,73.168 49.616,73.169 49.486 C 73.171 49.292,73.200 49.294,73.333 49.500 C 73.559 49.850,73.539 50.043,73.292 49.895 C 73.141 49.804,73.144 49.844,73.304 50.041 C 73.425 50.191,73.631 50.272,73.762 50.222 C 73.893 50.172,74.000 50.214,74.000 50.316 C 74.000 50.569,75.878 50.556,76.133 50.300 C 76.243 50.190,76.333 50.162,76.333 50.237 C 76.333 50.312,76.441 50.284,76.573 50.175 C 76.705 50.065,76.768 49.856,76.712 49.710 C 76.649 49.548,76.678 49.487,76.786 49.554 C 77.119 49.760,77.162 48.899,77.162 42.083 C 77.162 35.424,77.115 34.777,76.632 34.734 C 75.665 34.648,75.678 34.689,75.629 31.607 L 75.583 28.750 74.958 28.698 L 74.333 28.647 74.323 27.198 C 74.296 23.371,74.196 22.743,73.632 22.891 C 72.957 23.067,72.833 22.864,72.833 21.579 C 72.833 19.960,72.772 19.833,71.982 19.833 C 71.343 19.833,71.333 19.824,71.333 19.207 L 71.333 18.581 70.583 18.641 C 70.039 18.684,69.831 18.639,69.823 18.475 C 69.817 18.351,69.822 17.513,69.833 16.612 C 69.847 15.482,69.785 14.893,69.635 14.712 C 69.515 14.567,69.417 14.404,69.417 14.349 C 69.417 14.295,69.360 14.269,69.292 14.292 C 69.223 14.315,69.167 14.261,69.167 14.173 C 69.167 14.079,68.690 14.046,68.000 14.093 L 66.833 14.173 66.833 13.420 C 66.833 12.648,67.054 12.454,67.467 12.867 C 67.622 13.022,67.667 13.008,67.667 12.802 C 67.667 12.636,67.481 12.511,67.167 12.464 C 66.892 12.424,66.667 12.436,66.667 12.492 C 66.667 12.547,66.371 12.564,66.010 12.530 C 65.356 12.467,65.178 11.990,65.571 11.354 C 65.680 11.177,66.333 11.304,66.333 11.502 C 66.333 11.573,66.451 11.676,66.595 11.731 C 66.791 11.807,66.843 11.740,66.803 11.464 C 66.759 11.157,66.647 11.099,66.125 11.110 C 65.509 11.123,65.500 11.114,65.500 10.484 C 65.500 9.638,65.225 9.513,63.602 9.619 L 62.287 9.705 62.403 8.526 C 62.536 7.177,62.352 6.629,61.780 6.675 C 61.580 6.691,60.985 6.695,60.458 6.685 L 59.500 6.667 59.500 5.917 L 59.500 5.167 58.750 5.167 C 58.015 5.167,57.879 5.038,57.986 4.441 C 58.031 4.190,57.650 3.850,57.421 3.938 C 57.300 3.985,57.151 3.943,57.090 3.845 C 57.030 3.747,56.581 3.667,56.092 3.667 C 55.211 3.667,55.203 3.662,55.095 3.089 C 54.938 2.251,54.994 2.265,51.635 2.188 L 50.687 2.167 50.635 1.542 C 50.573 0.788,50.212 0.705,46.875 0.681 C 44.949 0.667,44.833 0.648,44.833 0.333 C 44.833 -0.123,44.536 -0.089,44.470 0.375 C 44.421 0.716,44.327 0.750,43.417 0.750 C 42.507 0.750,42.412 0.716,42.363 0.375 C 42.287 -0.160,39.000 -0.219,39.000 0.314 M57.000 4.177 C 57.000 4.274,57.058 4.317,57.129 4.273 C 57.201 4.229,57.385 4.412,57.538 4.680 L 57.818 5.167 57.252 5.167 C 56.587 5.167,56.501 5.070,56.618 4.457 C 56.701 4.023,57.000 3.803,57.000 4.177 M12.701 6.958 C 12.584 7.119,12.532 7.156,12.587 7.042 C 12.752 6.696,12.215 6.806,11.776 7.208 C 11.244 7.696,11.014 8.568,11.452 8.438 C 11.616 8.389,11.956 8.300,12.208 8.240 C 12.545 8.159,12.667 8.028,12.667 7.744 C 12.667 7.531,12.779 7.245,12.917 7.107 C 13.054 6.970,13.167 6.814,13.167 6.762 C 13.167 6.567,12.908 6.676,12.701 6.958 M63.626 8.263 C 63.563 8.326,63.588 8.519,63.680 8.692 C 63.773 8.865,63.803 9.080,63.748 9.170 C 63.692 9.260,63.726 9.333,63.823 9.333 C 63.921 9.333,63.995 9.202,63.988 9.042 C 63.971 8.599,63.754 8.135,63.626 8.263 M67.877 12.811 C 67.891 12.994,67.957 13.110,68.023 13.069 C 68.090 13.028,68.178 13.202,68.220 13.456 C 68.268 13.748,68.288 13.678,68.273 13.263 C 68.260 12.903,68.161 12.580,68.051 12.544 C 67.937 12.506,67.863 12.620,67.877 12.811 M68.667 14.518 C 68.667 14.619,68.782 14.658,68.922 14.604 C 69.093 14.539,69.231 14.647,69.339 14.931 C 69.560 15.513,69.570 15.500,68.917 15.500 C 68.361 15.500,68.333 15.472,68.333 14.917 C 68.333 14.596,68.408 14.333,68.500 14.333 C 68.592 14.333,68.667 14.416,68.667 14.518 M14.925 22.598 C 14.747 22.728,14.466 22.792,14.300 22.740 C 14.045 22.658,14.000 22.745,14.000 23.322 C 14.000 23.695,14.042 24.000,14.094 24.000 C 14.422 24.000,14.897 23.555,15.107 23.052 C 15.396 22.360,15.363 22.277,14.925 22.598 M73.761 24.714 C 73.858 24.719,73.955 25.002,73.975 25.344 C 74.011 25.953,73.998 25.967,73.422 25.967 C 72.853 25.967,72.833 25.946,72.833 25.344 C 72.833 24.632,72.957 24.444,73.325 24.598 C 73.467 24.658,73.663 24.710,73.761 24.714 M62.590 26.656 C 62.401 26.961,62.664 27.125,63.454 27.195 C 64.188 27.261,64.227 27.071,63.500 26.973 C 63.271 26.942,63.001 26.812,62.900 26.683 C 62.758 26.501,62.689 26.495,62.590 26.656 M65.508 29.583 C 65.503 29.904,65.815 30.253,65.954 30.082 C 66.028 29.991,66.058 29.934,66.019 29.956 C 65.981 29.977,65.851 29.865,65.730 29.706 C 65.609 29.547,65.509 29.492,65.508 29.583 M76.411 35.167 C 76.701 35.167,76.839 35.954,76.586 36.164 C 76.476 36.256,76.338 36.283,76.280 36.225 C 76.222 36.167,76.060 36.214,75.921 36.330 C 75.699 36.514,75.667 36.443,75.667 35.784 C 75.667 35.111,75.977 34.612,76.139 35.025 C 76.169 35.103,76.292 35.167,76.411 35.167 M20.189 39.585 C 20.430 39.716,20.671 39.938,20.725 40.078 C 20.836 40.367,21.167 40.426,21.167 40.157 C 21.167 40.060,21.084 40.032,20.982 40.094 C 20.859 40.170,20.834 40.095,20.906 39.868 C 20.965 39.681,20.936 39.480,20.842 39.422 C 20.736 39.357,20.713 39.426,20.781 39.605 C 20.886 39.876,20.869 39.877,20.492 39.613 C 20.272 39.459,20.015 39.336,19.921 39.340 C 19.827 39.344,19.947 39.454,20.189 39.585 M71.345 42.542 C 71.339 42.794,71.408 43.000,71.500 43.000 C 71.696 43.000,71.696 42.872,71.500 42.417 C 71.373 42.121,71.355 42.136,71.345 42.542 M1.180 50.843 C 1.173 50.986,1.283 51.249,1.426 51.426 C 1.681 51.745,1.683 51.745,1.532 51.417 C 1.447 51.233,1.337 50.971,1.286 50.833 C 1.206 50.617,1.191 50.619,1.180 50.843 M41.242 61.774 C 41.017 62.017,40.836 62.298,40.839 62.399 C 40.844 62.589,41.333 62.023,41.333 61.827 C 41.333 61.767,41.502 61.636,41.708 61.537 C 41.915 61.437,41.986 61.351,41.867 61.345 C 41.748 61.338,41.467 61.532,41.242 61.774 M20.833 62.586 C 20.833 62.725,20.609 62.975,20.334 63.142 C 20.059 63.309,19.884 63.495,19.945 63.556 C 20.133 63.744,20.360 63.678,20.232 63.472 C 20.153 63.342,20.201 63.311,20.377 63.378 C 20.523 63.434,20.732 63.372,20.842 63.240 C 20.951 63.108,20.979 63.000,20.904 63.000 C 20.828 63.000,20.857 62.910,20.967 62.800 C 21.210 62.557,21.226 62.333,21.000 62.333 C 20.908 62.333,20.833 62.447,20.833 62.586 M7.347 64.518 C 7.081 64.955,7.020 64.988,6.959 64.727 C 6.919 64.556,6.893 64.729,6.902 65.110 C 6.910 65.492,6.982 65.792,7.063 65.777 C 7.143 65.762,7.246 65.854,7.292 65.982 C 7.351 66.143,7.306 66.171,7.147 66.075 C 6.957 65.960,6.958 65.987,7.152 66.226 C 7.281 66.385,7.478 66.480,7.590 66.437 C 7.701 66.394,7.877 66.444,7.980 66.546 C 8.118 66.685,8.167 66.683,8.167 66.539 C 8.167 66.432,8.018 66.266,7.837 66.169 C 7.221 65.839,7.109 65.380,7.467 64.655 C 7.855 63.872,7.787 63.794,7.347 64.518 M29.201 67.125 C 29.084 67.285,29.039 67.311,29.103 67.183 C 29.181 67.025,29.152 66.989,29.014 67.074 C 28.902 67.144,28.855 67.315,28.908 67.455 C 28.962 67.594,28.919 67.814,28.812 67.942 C 28.706 68.070,28.666 68.221,28.722 68.278 C 28.869 68.424,29.349 67.993,29.238 67.814 C 29.188 67.733,29.259 67.667,29.397 67.667 C 29.534 67.667,29.693 67.593,29.749 67.502 C 29.808 67.406,29.726 67.376,29.550 67.431 C 29.267 67.520,29.266 67.515,29.543 67.337 C 29.704 67.233,29.910 67.195,30.001 67.251 C 30.092 67.307,30.167 67.282,30.167 67.194 C 30.167 67.047,29.787 66.833,29.527 66.833 C 29.465 66.833,29.319 66.965,29.201 67.125 M58.734 70.257 C 58.252 70.791,58.194 71.000,58.528 71.000 C 58.604 71.000,58.648 70.909,58.625 70.798 C 58.602 70.687,58.746 70.521,58.945 70.430 C 59.145 70.340,59.297 70.131,59.285 69.966 C 59.273 69.801,59.260 69.671,59.256 69.676 C 59.253 69.681,59.018 69.942,58.734 70.257 M14.581 71.835 C 13.645 72.870,14.417 73.833,16.182 73.833 C 17.417 73.833,18.667 73.553,18.201 73.381 C 18.048 73.324,18.036 73.240,18.160 73.091 C 18.296 72.927,18.053 72.833,17.066 72.664 C 15.905 72.465,15.783 72.407,15.632 71.973 C 15.437 71.414,15.013 71.358,14.581 71.835 M20.167 74.417 C 20.167 74.965,20.797 75.333,21.736 75.333 C 22.233 75.333,22.767 75.382,22.922 75.442 C 23.158 75.532,23.177 75.497,23.036 75.234 C 22.855 74.896,22.833 74.809,22.833 74.417 C 22.833 74.215,22.574 74.167,21.500 74.167 C 20.426 74.167,20.167 74.215,20.167 74.417 " stroke="none" fill="#da091c" fill-rule="evenodd"></path><path id="path3" d="M53.738 36.405 C 53.682 36.627,53.686 36.965,53.746 37.155 C 53.850 37.481,53.790 37.501,52.636 37.519 C 51.965 37.530,51.309 37.549,51.178 37.561 C 51.035 37.574,50.913 37.817,50.874 38.167 C 50.793 38.891,50.724 38.960,50.000 39.041 C 49.650 39.080,49.408 39.202,49.394 39.345 C 49.382 39.476,49.363 40.432,49.353 41.468 L 49.333 43.353 48.708 43.302 C 48.128 43.254,48.082 43.211,48.067 42.706 C 48.022 41.244,47.865 42.231,47.844 44.106 C 47.830 45.349,47.745 46.323,47.639 46.449 C 47.510 46.606,47.511 46.667,47.646 46.667 C 47.846 46.667,47.894 47.507,47.729 48.123 C 47.674 48.328,47.550 48.447,47.453 48.387 C 47.343 48.320,47.317 48.383,47.383 48.556 C 47.442 48.709,47.417 48.833,47.328 48.833 C 47.239 48.833,47.167 48.716,47.167 48.573 C 47.167 48.431,47.093 48.359,47.002 48.415 C 46.909 48.473,46.879 48.409,46.932 48.269 C 46.986 48.130,47.150 48.059,47.305 48.106 C 47.517 48.172,47.509 48.145,47.272 47.993 C 47.025 47.836,46.930 47.842,46.816 48.022 C 46.703 48.201,46.671 48.187,46.669 47.958 C 46.668 47.798,46.779 47.667,46.917 47.667 C 47.054 47.667,47.167 47.577,47.167 47.468 C 47.167 47.359,47.266 47.405,47.386 47.570 C 47.586 47.843,47.606 47.824,47.606 47.362 C 47.606 47.082,47.529 46.868,47.436 46.885 C 47.342 46.902,47.262 46.810,47.258 46.680 C 47.253 46.551,47.085 46.432,46.884 46.417 C 46.564 46.394,46.542 46.433,46.703 46.737 C 46.873 47.055,46.864 47.064,46.593 46.840 C 46.310 46.606,46.284 47.208,46.492 49.157 C 46.496 49.197,46.605 49.086,46.734 48.910 C 46.953 48.610,46.963 48.619,46.882 49.043 C 46.834 49.292,46.734 49.458,46.660 49.412 C 46.525 49.329,46.298 49.834,46.347 50.108 C 46.502 50.969,46.299 55.000,46.101 55.000 C 45.973 55.000,45.826 55.112,45.773 55.250 C 45.708 55.420,45.782 55.500,46.005 55.500 C 46.270 55.500,46.333 55.614,46.333 56.093 C 46.333 56.716,46.262 56.740,45.171 56.476 C 44.988 56.432,44.914 56.603,44.880 57.152 C 44.825 58.036,44.877 57.975,44.129 58.026 C 43.795 58.048,43.555 58.121,43.597 58.188 C 43.638 58.255,43.596 58.357,43.503 58.415 C 43.410 58.473,43.333 58.740,43.333 59.010 C 43.333 59.279,43.258 59.500,43.167 59.500 C 43.075 59.500,42.995 59.669,42.989 59.875 L 42.979 60.250 42.828 59.875 C 42.675 59.493,42.333 59.356,42.333 59.677 C 42.333 59.774,42.258 59.807,42.167 59.750 C 42.075 59.694,42.012 59.783,42.027 59.949 C 42.041 60.114,42.041 60.742,42.026 61.344 L 42.000 62.438 41.292 62.450 C 40.045 62.471,39.197 62.580,39.276 62.708 C 39.318 62.777,39.266 62.833,39.159 62.833 C 39.050 62.833,39.009 62.949,39.065 63.095 C 39.244 63.561,38.857 64.042,38.396 63.926 C 37.892 63.800,37.590 64.086,37.558 64.719 C 37.527 65.335,37.604 65.301,36.112 65.356 C 34.704 65.409,34.625 65.454,34.600 66.233 L 34.583 66.750 32.677 66.797 C 31.628 66.824,30.679 66.921,30.567 67.014 C 30.429 67.128,30.328 67.127,30.255 67.008 C 30.196 66.912,30.058 66.834,29.948 66.836 C 29.795 66.838,29.795 66.867,29.948 66.964 C 30.143 67.088,30.500 67.873,30.500 68.178 C 30.500 68.270,28.614 68.333,25.826 68.333 C 22.184 68.333,21.158 68.287,21.179 68.125 C 21.246 67.612,21.152 67.156,21.000 67.250 C 20.908 67.307,20.833 67.233,20.833 67.086 C 20.833 66.888,20.693 66.829,20.292 66.856 C 19.994 66.877,18.802 66.880,17.643 66.863 L 15.536 66.833 15.408 66.375 C 15.337 66.123,15.294 65.824,15.313 65.711 C 15.334 65.582,15.241 65.546,15.063 65.614 C 14.884 65.683,14.819 65.658,14.888 65.547 C 14.947 65.450,14.903 65.374,14.790 65.378 C 13.097 65.439,12.368 65.321,12.452 65.000 C 12.500 64.817,12.463 64.667,12.371 64.667 C 12.279 64.667,12.214 64.535,12.227 64.375 C 12.241 64.201,12.153 64.104,12.009 64.136 C 11.877 64.165,11.591 64.094,11.375 63.978 C 11.077 63.818,10.864 63.812,10.493 63.952 C 10.224 64.053,9.843 64.094,9.646 64.043 C 9.386 63.975,9.312 64.013,9.374 64.183 C 9.420 64.312,9.551 64.395,9.663 64.369 C 10.027 64.285,10.363 64.680,10.148 64.939 C 10.005 65.112,10.011 65.167,10.175 65.167 C 10.312 65.167,10.262 65.304,10.039 65.542 C 9.771 65.828,9.678 66.162,9.650 66.950 C 9.611 68.028,9.317 68.182,8.846 67.373 C 8.751 67.211,8.675 67.175,8.672 67.292 C 8.669 67.406,8.592 67.500,8.500 67.500 C 8.296 67.500,8.354 67.130,8.583 66.961 C 8.685 66.886,8.665 66.837,8.532 66.836 C 8.410 66.834,8.366 66.749,8.433 66.641 C 8.506 66.522,8.478 66.494,8.359 66.567 C 8.118 66.717,8.104 67.667,8.343 67.667 C 8.440 67.667,8.476 67.738,8.422 67.825 C 8.291 68.036,8.961 68.384,9.269 68.266 C 9.518 68.170,9.626 68.329,9.711 68.917 C 9.793 69.482,10.015 69.744,10.185 69.476 C 10.268 69.345,10.329 69.329,10.331 69.437 C 10.332 69.551,10.731 69.632,11.366 69.646 C 12.437 69.671,12.732 69.849,12.568 70.376 C 12.518 70.536,12.576 70.763,12.697 70.879 C 12.932 71.106,12.985 71.114,14.471 71.146 L 15.441 71.167 15.596 71.791 C 15.768 72.488,16.057 72.611,17.603 72.647 C 18.415 72.666,18.455 72.688,18.460 73.125 C 18.467 73.909,18.495 74.023,18.655 73.924 C 18.740 73.871,18.853 73.897,18.905 73.981 C 18.957 74.065,19.839 74.143,20.865 74.155 C 21.891 74.166,22.749 74.194,22.772 74.216 C 22.795 74.239,22.854 74.481,22.903 74.753 C 23.011 75.346,23.430 75.692,24.000 75.657 C 25.926 75.539,27.167 75.674,27.167 76.000 C 27.167 76.330,27.278 76.333,37.417 76.333 C 47.488 76.333,47.667 76.328,47.667 76.006 C 47.667 75.710,47.804 75.675,49.125 75.631 L 50.583 75.583 50.634 74.881 L 50.685 74.179 52.134 74.131 L 53.583 74.083 53.635 73.375 L 53.686 72.667 54.976 72.667 C 56.428 72.667,56.667 72.532,56.667 71.717 C 56.667 71.176,56.679 71.167,57.417 71.167 L 58.167 71.167 58.167 70.423 L 58.167 69.680 59.542 69.632 L 60.917 69.583 60.965 68.125 L 61.013 66.667 61.562 66.667 C 61.864 66.667,62.165 66.721,62.231 66.787 C 62.738 67.293,64.000 66.658,64.000 65.896 C 64.000 65.365,64.033 65.333,64.577 65.333 C 65.332 65.333,65.500 65.002,65.500 63.511 L 65.500 62.333 66.167 62.333 L 66.833 62.333 66.833 61.667 C 66.833 61.020,66.851 61.000,67.396 61.000 C 68.230 61.000,68.318 60.774,68.370 58.500 L 68.417 56.438 69.083 56.427 L 69.750 56.417 69.797 51.000 C 69.844 45.456,69.808 44.802,69.454 44.847 C 68.528 44.965,68.333 44.847,68.333 44.167 L 68.333 43.500 67.590 43.500 L 66.846 43.500 66.798 41.958 C 66.746 40.295,66.820 40.414,65.792 40.351 C 65.573 40.338,65.500 40.188,65.500 39.756 C 65.500 39.120,65.166 38.833,64.428 38.833 C 64.086 38.833,64.000 38.752,64.000 38.430 C 64.000 37.561,63.895 37.500,62.399 37.500 C 61.008 37.500,61.000 37.497,61.000 37.072 C 61.000 36.002,60.995 36.000,57.247 36.000 L 53.840 36.000 53.738 36.405 M47.731 50.220 C 47.993 51.196,47.840 53.087,47.474 53.400 C 47.148 53.679,47.126 53.681,47.226 53.418 C 47.305 53.213,47.270 53.155,47.104 53.219 C 46.936 53.283,46.893 53.207,46.950 52.946 C 47.002 52.709,46.978 52.654,46.883 52.787 C 46.791 52.914,46.730 52.649,46.718 52.079 C 46.706 51.434,46.756 51.201,46.892 51.283 C 46.997 51.346,46.971 51.256,46.833 51.083 C 46.688 50.900,46.670 50.822,46.792 50.895 C 46.906 50.963,47.000 50.940,47.000 50.843 C 47.000 50.746,46.925 50.667,46.833 50.667 C 46.742 50.667,46.667 50.594,46.667 50.505 C 46.667 50.416,46.798 50.393,46.958 50.453 C 47.217 50.550,47.223 50.530,47.013 50.272 C 46.809 50.021,46.809 49.988,47.013 50.032 C 47.144 50.060,47.232 49.992,47.210 49.881 C 47.140 49.524,47.630 49.843,47.731 50.220 M45.105 55.368 C 45.150 55.441,45.107 55.500,45.010 55.500 C 44.913 55.500,44.833 55.565,44.833 55.644 C 44.833 55.723,45.032 55.749,45.275 55.703 C 45.608 55.639,45.683 55.672,45.582 55.835 C 45.492 55.981,45.514 56.011,45.649 55.928 C 45.790 55.841,45.798 55.741,45.676 55.595 C 45.581 55.480,45.548 55.341,45.604 55.285 C 45.659 55.230,45.551 55.196,45.364 55.210 C 45.176 55.224,45.060 55.295,45.105 55.368 M43.333 60.875 C 43.333 61.043,42.804 61.029,42.528 60.854 C 42.381 60.761,42.480 60.719,42.819 60.732 C 43.101 60.742,43.333 60.806,43.333 60.875 M9.000 67.750 C 9.170 67.955,9.159 68.000,8.937 68.000 C 8.788 68.000,8.667 67.887,8.667 67.750 C 8.667 67.612,8.695 67.500,8.730 67.500 C 8.764 67.500,8.886 67.612,9.000 67.750 M62.071 67.905 C 61.895 68.034,61.808 68.197,61.879 68.268 C 61.950 68.339,62.133 68.272,62.286 68.119 C 62.646 67.759,62.488 67.600,62.071 67.905 " stroke="none" fill="#a1e80c" fill-rule="evenodd"></path><path id="path4" d="" stroke="none" fill="#100bcbc" fill-rule="evenodd"></path><path id="path5" d="" stroke="none" fill="#100bcbc" fill-rule="evenodd"></path><path id="path6" d="" stroke="none" fill="#100bcbc" fill-rule="evenodd"></path><path id="path7" d="" stroke="none" fill="#100bcbc" fill-rule="evenodd"></path><path id="path8" d="" stroke="none" fill="#100bcbc" fill-rule="evenodd"></path></g></svg>