<?xml version="1.0" standalone="no"?>
<!DOCTYPE svg PUBLIC "-//W3C//DTD SVG 20010904//EN"
 "http://www.w3.org/TR/2001/REC-SVG-20010904/DTD/svg10.dtd">
<svg version="1.0" xmlns="http://www.w3.org/2000/svg"
 width="820.000000pt" height="820.000000pt" viewBox="0 0 820.000000 820.000000"
 preserveAspectRatio="xMidYMid meet">
<metadata>
Created by potrace 1.16, written by Peter Selinger 2001-2019
</metadata>
<g transform="translate(0.000000,820.000000) scale(0.100000,-0.100000)"
fill="#000000" stroke="none">
<path d="M2390 7173 c-99 -2 -147 -7 -152 -16 -5 -8 -44 -13 -113 -15 -82 -3
-105 -7 -105 -18 0 -11 -18 -14 -80 -14 -64 0 -80 -3 -80 -15 0 -12 -14 -15
-65 -15 -51 0 -65 -3 -65 -15 0 -10 -10 -15 -32 -15 -18 0 -46 -7 -61 -15 -15
-8 -43 -17 -62 -21 -18 -3 -36 -12 -39 -20 -3 -8 -18 -14 -33 -14 -19 0 -24
-3 -15 -9 11 -7 11 -9 -2 -14 -10 -4 -16 -18 -16 -37 0 -16 -4 -30 -10 -30 -6
0 -10 -65 -10 -175 0 -158 -2 -176 -17 -182 -10 -4 -21 -11 -25 -17 -7 -11
-12 -12 -47 -15 -11 0 -26 -8 -35 -16 -8 -8 -22 -15 -30 -15 -9 0 -16 -8 -16
-20 0 -11 -7 -20 -15 -20 -15 0 -20 -56 -16 -185 1 -22 -5 -53 -14 -69 -21
-39 -21 -162 0 -170 20 -7 20 -124 0 -173 -17 -40 -20 -113 -5 -113 6 0 10
-22 10 -50 0 -27 -4 -50 -10 -50 -5 0 -10 -5 -10 -10 0 -6 6 -9 13 -8 14 3 17
-32 4 -50 -7 -8 -6 -27 2 -53 13 -43 5 -179 -10 -179 -5 0 -9 -27 -9 -60 0
-48 3 -60 16 -60 14 0 15 -13 12 -95 -2 -67 -7 -98 -17 -104 -14 -9 -13 -21 9
-169 7 -50 7 -79 0 -92 -13 -25 -13 -60 1 -60 13 0 2 -180 -12 -194 -14 -15
-11 -84 4 -88 8 -3 13 -35 15 -101 3 -84 2 -97 -12 -97 -13 0 -16 -12 -16 -64
0 -35 5 -66 10 -68 6 -2 11 -36 11 -78 0 -41 0 -119 0 -172 1 -64 -3 -98 -10
-98 -16 0 -13 -95 4 -160 19 -72 19 -154 0 -174 -18 -18 -21 -142 -4 -148 17
-6 24 -135 9 -163 -10 -19 -11 -36 -1 -81 6 -32 11 -70 11 -86 0 -18 5 -28 15
-28 10 0 15 -10 15 -30 0 -23 4 -30 20 -30 11 0 20 -5 20 -11 0 -5 4 -7 10 -4
5 3 10 1 10 -4 0 -6 14 -11 30 -11 18 0 33 -6 36 -15 5 -13 124 -15 980 -15
921 0 974 1 974 18 1 9 2 107 3 216 1 149 5 200 15 204 6 2 12 17 12 32 0 16
7 33 16 38 10 6 17 24 18 48 l1 39 -125 8 c-69 4 -126 12 -128 17 -6 16 -799
13 -804 -2 -3 -9 -45 -14 -134 -19 -71 -3 -124 -6 -119 -7 6 -1 3 -7 -5 -12
-8 -5 -45 -10 -82 -10 -54 0 -68 -3 -68 -15 0 -10 -11 -15 -35 -15 l-35 0 0
1694 0 1694 31 6 c17 3 46 6 64 6 19 0 35 6 37 13 3 8 35 13 98 16 63 2 98 8
107 17 11 11 51 14 176 14 92 0 156 4 149 9 -27 17 20 21 224 21 175 0 204 -2
204 -15 0 -13 26 -15 175 -15 139 0 177 -3 181 -14 3 -9 28 -14 82 -15 42 -1
90 -8 107 -16 16 -7 57 -16 90 -20 33 -4 63 -11 66 -17 3 -5 32 -12 63 -15 32
-3 52 -9 46 -13 -14 -9 21 -20 63 -20 17 0 27 -5 27 -15 0 -8 4 -15 9 -15 6 0
10 -122 10 -311 1 -203 -3 -308 -9 -304 -6 4 -10 -11 -9 -37 1 -40 2 -41 9
-13 4 17 8 -94 9 -245 0 -181 -3 -270 -9 -260 -8 12 -10 11 -10 -7 0 -13 5
-23 10 -23 7 0 10 -284 10 -831 0 -551 -3 -828 -10 -824 -5 3 -10 -1 -10 -9 0
-12 11 -16 51 -16 27 0 48 4 45 9 -9 13 47 21 151 21 74 0 95 -3 99 -15 4 -10
20 -15 50 -15 l44 0 0 1440 c0 1273 2 1440 15 1440 8 0 15 7 15 15 0 10 11 15
35 15 23 0 35 5 35 14 0 10 18 15 61 18 33 2 64 9 67 15 4 6 34 14 67 18 33 4
63 13 67 19 4 6 46 12 98 14 66 3 90 7 90 17 0 11 39 14 182 15 149 1 184 3
191 15 12 23 429 22 421 0 -5 -13 16 -15 160 -15 141 0 166 -2 166 -15 0 -12
16 -15 88 -15 94 0 135 -7 126 -21 -3 -5 10 -9 28 -9 49 0 78 -10 78 -27 0 -9
6 -13 15 -9 13 5 15 -121 15 -1099 0 -1004 1 -1105 16 -1105 9 0 18 -9 21 -20
3 -11 12 -20 19 -20 8 0 14 -7 14 -15 0 -8 7 -15 15 -15 8 0 15 -7 15 -15 0
-8 7 -15 15 -15 8 0 15 -7 15 -15 0 -8 7 -15 15 -15 8 0 15 -9 15 -20 0 -11 6
-20 14 -20 8 0 17 -13 21 -29 3 -16 13 -32 21 -35 8 -3 14 -12 14 -21 0 -11
11 -15 40 -15 22 0 40 -4 40 -9 0 -4 32 -12 70 -15 51 -5 70 -11 70 -22 0 -9
11 -14 35 -14 24 0 35 -5 35 -15 0 -10 10 -15 30 -15 20 0 30 -5 30 -15 0 -8
6 -15 14 -15 8 0 21 -3 30 -6 15 -6 16 100 16 1155 0 810 -3 1161 -11 1161 -5
0 -7 5 -4 10 3 6 1 10 -4 10 -6 0 -11 9 -11 20 0 11 -7 20 -15 20 -8 0 -15 7
-15 15 0 8 -7 15 -15 15 -8 0 -15 7 -15 15 0 10 -11 15 -35 15 -24 0 -35 5
-35 15 0 10 -10 15 -30 15 l-30 0 0 210 c0 180 -2 210 -15 210 -8 0 -15 7 -15
15 0 8 -9 15 -20 15 -11 0 -20 6 -20 14 0 8 -16 16 -42 19 -24 3 -44 10 -46
16 -2 6 -26 13 -53 17 -27 4 -49 11 -49 17 0 6 -3 7 -7 4 -3 -4 -11 -3 -17 2
-7 6 -37 11 -69 12 -54 2 -72 11 -44 22 6 3 -28 6 -76 6 -68 1 -89 4 -93 16
-5 12 -26 15 -99 15 -75 0 -97 3 -111 17 -16 16 -58 17 -526 18 -439 0 -510
-2 -518 -15 -7 -11 -36 -16 -120 -18 -85 -3 -110 -7 -110 -18 0 -11 -18 -14
-80 -14 -66 0 -78 -2 -74 -15 5 -12 -3 -15 -42 -15 -57 0 -96 -9 -89 -20 2 -4
-19 -10 -47 -13 -28 -4 -55 -11 -58 -17 -4 -7 -26 -14 -49 -17 -25 -4 -41 -11
-41 -19 0 -9 -12 -14 -35 -14 -24 0 -35 -5 -35 -15 0 -11 -12 -15 -45 -15 -33
0 -45 4 -45 15 0 10 -10 15 -34 15 -19 0 -41 6 -49 14 -8 8 -29 17 -47 20 -18
2 -36 9 -39 15 -8 12 -40 19 -88 20 -22 1 -33 6 -33 16 0 12 -14 15 -65 15
-51 0 -65 3 -65 15 0 12 -13 15 -59 15 -65 0 -94 7 -85 21 3 5 -36 9 -88 9
-64 0 -102 5 -122 15 -24 13 -92 16 -395 19 -201 2 -431 1 -511 -1z"/>
<path d="M2533 6296 c-6 -11 -42 -15 -162 -18 -112 -2 -155 -6 -159 -15 -2 -7
-13 -13 -25 -13 -63 -1 -67 -6 -67 -91 0 -62 3 -79 14 -79 8 0 17 -6 19 -12 4
-10 8 -9 16 2 8 12 42 16 153 21 79 3 136 7 128 9 -47 9 121 18 360 19 267 1
325 -3 315 -19 -3 -4 54 -10 125 -11 83 -3 133 -8 138 -15 4 -7 48 -15 99 -19
64 -5 93 -11 97 -21 3 -8 19 -14 36 -14 l30 0 0 94 0 93 -50 7 c-27 4 -50 11
-50 15 0 5 -42 12 -92 16 -51 4 -96 12 -100 18 -4 7 -66 13 -162 15 -124 4
-156 7 -156 18 0 21 -495 21 -507 0z"/>
<path d="M5180 6296 c0 -12 -28 -15 -150 -18 -95 -2 -153 -7 -158 -14 -4 -6
-49 -14 -101 -18 -52 -3 -98 -11 -101 -17 -4 -6 -26 -13 -49 -16 -25 -4 -41
-11 -41 -19 0 -8 -7 -14 -15 -14 -12 0 -15 -15 -15 -71 0 -44 4 -68 10 -64 6
3 13 -1 16 -9 8 -20 21 -20 58 -1 15 8 65 18 110 21 44 4 84 12 88 18 5 7 58
12 143 14 74 2 133 8 130 12 -10 16 102 22 379 18 212 -2 280 -6 284 -15 2 -9
32 -13 101 -13 115 0 193 -9 185 -21 -3 -5 2 -9 10 -9 19 0 28 46 24 125 l-3
60 -45 6 c-25 3 -40 7 -35 9 31 8 -69 18 -192 19 -120 1 -143 3 -143 16 0 13
-34 15 -245 15 -206 0 -245 -2 -245 -14z"/>
<path d="M2469 5853 c-1 -5 -1 -11 0 -15 0 -5 -64 -8 -144 -8 -122 0 -145 -2
-145 -15 0 -10 -10 -15 -30 -15 l-30 0 0 -79 c0 -67 3 -79 18 -83 9 -2 69 -1
132 2 63 4 111 8 105 9 -5 1 -1 6 10 11 11 5 194 9 408 9 327 1 387 -1 387
-13 0 -11 25 -15 120 -18 76 -2 123 -7 128 -14 4 -7 40 -13 81 -16 46 -2 76
-8 79 -16 2 -7 17 -12 33 -12 l29 0 0 89 c0 96 -3 100 -67 101 -12 0 -23 5
-25 11 -2 6 -37 14 -78 17 -48 3 -78 10 -83 18 -6 11 -40 14 -147 14 -124 0
-174 9 -138 23 7 3 -134 6 -314 6 -181 1 -329 -2 -329 -6z"/>
<path d="M5100 5851 c0 -5 6 -12 13 -14 6 -3 -57 -6 -140 -6 -124 -1 -153 -4
-153 -15 0 -10 -20 -15 -80 -18 -47 -2 -84 -8 -88 -15 -4 -6 -23 -13 -42 -15
-23 -2 -34 -8 -32 -17 2 -8 -3 -11 -13 -8 -13 5 -15 -5 -15 -68 0 -60 3 -75
15 -75 8 0 15 -4 15 -10 0 -14 38 -12 42 2 3 8 33 14 79 16 41 3 77 9 81 16 5
7 52 12 125 14 88 3 120 7 126 18 12 21 797 21 797 0 0 -12 24 -15 120 -18 66
-2 125 -1 130 0 6 2 10 39 10 83 0 72 -2 79 -20 79 -11 0 -20 7 -20 15 0 13
-23 15 -145 15 -111 0 -144 3 -142 13 1 9 -71 13 -330 15 -201 1 -333 -1 -333
-7z"/>
<path d="M2392 5395 c-10 -12 -39 -15 -127 -15 -96 0 -115 -3 -115 -15 0 -8
-7 -15 -15 -15 -12 0 -15 -16 -15 -80 l0 -80 123 1 c67 0 116 3 110 6 -48 19
29 23 420 23 362 0 436 -2 453 -14 15 -11 53 -15 127 -17 78 -1 107 -5 107
-14 0 -9 26 -14 82 -17 49 -3 84 -10 86 -17 2 -6 8 -9 13 -5 5 3 9 45 9 95 l0
89 -29 0 c-16 0 -31 6 -35 15 -4 12 -24 15 -86 15 -64 0 -80 3 -80 15 0 12
-19 15 -110 16 -134 2 -136 2 -132 17 1 9 -88 12 -385 12 -328 -1 -390 -3
-401 -15z"/>
<path d="M5090 5175 c0 -9 -9 -15 -22 -15 -39 0 -68 -12 -68 -26 0 -8 -9 -14
-20 -14 -11 0 -20 -7 -20 -15 0 -8 -7 -15 -15 -15 -8 0 -15 -7 -15 -15 0 -8
-7 -15 -15 -15 -8 0 -15 -7 -15 -15 0 -8 -7 -15 -15 -15 -8 0 -15 -7 -15 -15
0 -8 -7 -15 -15 -15 -8 0 -15 -9 -15 -19 0 -11 -6 -26 -14 -33 -7 -8 -17 -34
-21 -59 -4 -24 -13 -47 -19 -51 -8 -5 -11 -239 -12 -860 -1 -469 -2 -879 -3
-910 l-1 -58 -36 0 c-21 0 -33 -4 -29 -10 4 -6 12 -7 18 -4 9 5 9 4 0 -6 -13
-14 -48 -6 -38 10 4 6 -5 10 -19 10 -16 0 -26 6 -26 15 0 8 -7 15 -15 15 -8 0
-15 9 -15 20 0 11 -7 20 -15 20 -8 0 -15 7 -15 15 0 8 -6 15 -14 15 -8 0 -17
14 -21 30 -4 17 -13 30 -21 30 -8 0 -14 5 -14 10 0 6 -13 24 -30 40 -16 16
-30 34 -30 40 0 5 -7 10 -15 10 -8 0 -15 7 -15 15 0 8 -7 15 -15 15 -8 0 -15
7 -15 15 0 8 -9 15 -20 15 -11 0 -20 7 -20 15 0 9 -9 15 -25 15 -14 0 -28 6
-31 14 -3 8 -26 17 -52 21 -26 4 -50 11 -53 17 -9 14 -152 13 -157 -1 -2 -6
-16 -11 -30 -11 -15 0 -44 -9 -65 -20 -20 -11 -44 -20 -52 -20 -8 0 -15 -7
-15 -15 0 -9 -9 -15 -25 -15 -16 0 -25 -6 -25 -15 0 -8 -9 -15 -20 -15 -13 0
-20 -7 -20 -20 0 -12 -7 -20 -17 -20 -15 0 -16 -2 -3 -10 10 -6 11 -10 3 -10
-7 0 -13 -7 -13 -15 0 -9 -7 -18 -15 -21 -9 -4 -15 -19 -15 -35 0 -18 -5 -29
-14 -29 -33 0 -34 -304 -2 -322 9 -5 16 -20 16 -33 0 -16 6 -25 15 -25 8 0 15
-9 15 -20 0 -11 7 -20 15 -20 8 0 15 -7 15 -15 0 -8 6 -15 14 -15 8 0 17 -13
21 -30 4 -17 13 -30 21 -30 8 0 14 -6 14 -12 1 -7 14 -24 30 -38 17 -13 30
-30 30 -37 0 -7 7 -13 15 -13 8 0 15 -7 15 -15 0 -8 7 -15 15 -15 8 0 15 -7
15 -15 0 -9 7 -18 15 -21 8 -4 15 -12 15 -20 0 -8 9 -22 20 -31 11 -10 20 -23
20 -30 0 -7 7 -13 15 -13 8 0 15 -7 15 -15 0 -8 7 -15 15 -15 10 0 15 -10 15
-30 0 -20 5 -30 15 -30 8 0 15 -7 15 -15 0 -9 6 -18 14 -21 8 -3 18 -19 21
-35 4 -16 13 -29 21 -29 8 0 14 -6 14 -14 0 -8 7 -16 15 -20 8 -3 15 -10 15
-16 0 -6 7 -18 15 -26 8 -9 15 -24 15 -35 0 -10 7 -19 15 -19 14 0 19 -14 18
-47 -1 -7 5 -13 12 -13 8 0 16 -13 20 -29 3 -16 13 -32 21 -35 8 -3 14 -12 14
-21 0 -8 4 -15 10 -15 5 0 13 -18 16 -39 4 -27 10 -38 20 -34 9 3 14 -8 16
-39 2 -28 7 -42 16 -41 7 2 12 -7 12 -21 0 -14 7 -31 15 -40 8 -8 18 -29 21
-45 4 -17 10 -31 15 -31 4 0 11 -16 15 -35 3 -19 11 -33 18 -32 6 1 12 -13 14
-30 2 -21 9 -33 18 -33 9 0 14 -11 14 -30 0 -20 5 -30 15 -30 8 0 15 -7 15
-15 0 -8 7 -15 15 -15 8 0 15 -7 15 -15 0 -9 7 -18 15 -21 8 -3 17 -14 20 -25
4 -10 13 -19 21 -19 8 0 15 -4 15 -10 1 -5 2 -16 3 -22 0 -7 7 -14 14 -14 6
-1 19 -2 27 -3 8 0 15 -8 15 -16 0 -8 7 -15 15 -15 8 0 15 -7 15 -15 0 -8 9
-15 20 -15 11 0 20 -6 20 -14 0 -8 14 -17 30 -21 17 -4 30 -13 30 -21 0 -9 11
-14 35 -14 24 0 35 -5 35 -15 0 -10 11 -15 35 -15 22 0 34 -4 32 -12 -1 -8 19
-15 57 -19 32 -4 61 -11 65 -17 3 -5 47 -13 96 -17 50 -4 93 -12 97 -18 10
-17 536 -16 546 0 4 7 41 16 82 19 41 4 81 13 88 21 8 7 35 13 63 13 37 0 49
4 49 15 0 11 11 15 40 15 27 0 43 5 46 15 4 8 17 15 29 15 13 0 30 7 38 15 8
7 26 17 40 20 14 4 28 13 31 21 3 8 12 14 20 14 7 0 16 7 20 15 3 8 17 15 31
15 16 0 25 6 25 15 0 8 7 15 15 15 8 0 15 7 15 15 0 8 9 15 20 15 11 0 20 7
20 15 0 8 7 15 15 15 8 0 15 7 15 15 0 8 7 15 15 15 8 0 15 9 15 20 0 11 7 20
15 20 8 0 15 7 15 15 0 8 7 15 15 15 8 0 15 7 15 15 0 8 6 15 14 15 8 0 17 13
21 30 4 16 13 30 21 30 8 0 14 9 14 20 0 11 7 20 15 20 10 0 15 10 15 30 0 20
5 30 15 30 8 0 15 9 15 19 0 11 6 26 13 33 8 7 17 27 21 43 4 16 12 32 17 36
5 3 12 23 16 45 3 21 12 43 20 47 8 5 13 26 13 52 0 33 4 45 15 45 12 0 15 16
15 80 0 64 3 80 15 80 13 0 15 88 15 734 0 643 -2 735 -15 740 -9 3 -15 18
-15 36 0 20 -5 30 -15 30 -10 0 -15 10 -15 30 0 20 -5 30 -15 30 -8 0 -15 6
-15 13 0 15 -44 57 -59 57 -6 0 -11 7 -11 15 0 8 -7 15 -15 15 -8 0 -15 7 -15
15 0 10 -10 15 -29 15 -16 0 -31 6 -34 14 -3 8 -27 15 -63 18 -32 3 -60 10
-62 16 -2 7 -26 12 -58 12 -31 0 -53 -4 -50 -9 7 -11 -28 -21 -75 -21 -24 0
-39 -5 -43 -16 -4 -10 -15 -14 -33 -12 l-28 3 -3 98 c-2 75 -6 99 -17 104 -8
3 -15 16 -15 29 0 13 -5 24 -11 24 -5 0 -8 4 -5 9 3 5 -1 11 -9 15 -8 3 -15
12 -15 20 0 7 -7 16 -15 20 -8 3 -15 12 -15 21 0 8 -7 15 -15 15 -8 0 -15 7
-15 15 0 8 -7 15 -15 15 -8 0 -15 7 -15 15 0 8 -9 15 -20 15 -11 0 -20 7 -20
15 0 10 -10 15 -29 15 -16 0 -31 6 -34 13 -11 30 -317 30 -317 1 0 -10 -13
-14 -41 -14 -38 0 -40 2 -28 17 8 9 9 14 2 10 -8 -5 -9 4 -5 31 7 48 11 376 5
425 -3 20 -8 35 -13 32 -4 -3 -10 29 -12 71 -2 42 -9 78 -15 82 -6 4 -14 19
-18 34 -4 15 -13 29 -21 32 -8 3 -14 12 -14 21 0 8 -7 15 -15 15 -8 0 -15 7
-15 15 0 8 -7 15 -15 15 -8 0 -15 7 -15 15 0 8 -7 15 -15 15 -8 0 -15 6 -15
14 0 8 -13 17 -29 21 -16 3 -32 13 -35 21 -3 8 -18 14 -35 14 -16 0 -31 6 -35
15 -4 12 -29 15 -131 15 -104 0 -125 -2 -125 -15z m160 -195 c0 -5 15 -10 34
-10 19 0 38 -5 41 -10 4 -6 11 -8 16 -5 5 4 9 -1 9 -9 0 -9 7 -16 15 -16 8 0
15 -7 15 -15 0 -8 6 -15 14 -15 8 0 17 -12 21 -27 3 -15 12 -31 18 -35 9 -5
13 -204 15 -783 l2 -775 34 -35 c26 -27 43 -35 69 -35 19 0 40 7 47 15 7 8 19
15 26 15 9 0 14 11 14 30 0 20 5 30 15 30 11 0 15 12 15 50 0 28 -3 50 -7 50
-5 0 -7 26 -5 58 2 53 9 318 11 459 1 45 5 62 14 60 7 -1 13 10 15 26 2 15 9
27 15 27 7 0 20 9 30 20 9 11 26 20 37 20 11 0 20 7 20 15 0 12 16 15 80 15
64 0 80 -3 80 -15 0 -10 10 -15 30 -15 20 0 30 -5 30 -15 0 -8 7 -15 15 -15 8
0 15 -6 15 -13 0 -7 9 -20 20 -30 11 -9 20 -25 20 -36 0 -11 6 -21 13 -23 9
-4 13 -105 15 -451 2 -385 5 -447 17 -447 8 0 15 -7 15 -15 0 -8 7 -15 15 -15
8 0 15 -7 15 -15 0 -20 59 -20 66 -1 3 8 19 18 35 21 l29 7 0 234 c0 158 3
234 11 234 5 0 7 -5 3 -12 -4 -7 -3 -8 4 -4 7 4 12 23 12 42 0 24 5 34 15 34
8 0 15 9 15 20 0 13 7 20 20 20 11 0 20 7 20 15 0 10 10 15 30 15 20 0 30 5
30 15 0 12 16 15 80 15 64 0 80 -3 80 -15 0 -10 10 -15 30 -15 20 0 30 -5 30
-15 0 -8 7 -15 15 -15 16 0 36 -39 28 -52 -2 -5 3 -8 11 -8 13 0 16 -13 16
-67 0 -43 4 -63 9 -54 7 11 10 9 16 -8 8 -27 -1 -71 -15 -71 -6 0 -10 -12 -10
-27 0 -20 3 -24 9 -14 5 8 11 9 15 3 9 -14 4 -146 -5 -152 -4 -3 -11 -36 -15
-73 -6 -58 -5 -67 10 -67 14 0 16 -14 16 -95 0 -76 -3 -97 -15 -101 -11 -5
-15 -22 -15 -68 0 -37 4 -56 9 -48 7 11 10 10 15 -3 10 -26 7 -77 -4 -70 -5 3
-10 1 -10 -4 0 -6 5 -11 10 -11 11 0 14 -49 4 -74 -3 -9 -10 -13 -15 -10 -5 3
-9 -9 -9 -26 0 -17 4 -29 9 -26 12 8 19 -31 20 -117 1 -54 -1 -67 -14 -67 -13
0 -15 -20 -15 -130 0 -104 -3 -130 -14 -130 -10 0 -15 -18 -18 -61 -2 -33 -9
-64 -15 -67 -6 -4 -15 -21 -19 -37 -4 -17 -11 -33 -16 -36 -5 -3 -12 -25 -15
-48 -4 -25 -11 -41 -19 -41 -9 0 -14 -11 -14 -30 0 -20 -5 -30 -15 -30 -8 0
-15 -9 -15 -20 0 -11 -7 -20 -15 -20 -8 0 -15 -7 -15 -15 0 -8 -9 -24 -20 -35
-11 -11 -20 -24 -20 -30 0 -5 -7 -10 -15 -10 -8 0 -15 -6 -15 -14 0 -8 -7 -16
-15 -20 -8 -3 -15 -12 -15 -21 0 -8 -7 -15 -15 -15 -8 0 -15 -7 -15 -15 0 -8
-9 -15 -19 -15 -10 0 -21 -7 -25 -15 -3 -8 -15 -15 -26 -15 -11 0 -20 -7 -20
-15 0 -8 -9 -15 -20 -15 -11 0 -20 -6 -20 -14 0 -8 -13 -17 -29 -21 -16 -3
-32 -13 -35 -21 -3 -8 -17 -14 -31 -14 -15 0 -33 -7 -41 -15 -9 -8 -30 -15
-49 -15 -19 0 -35 -6 -38 -14 -3 -8 -27 -15 -62 -18 -31 -3 -60 -11 -65 -18
-6 -10 -68 -13 -281 -14 -342 -1 -419 3 -419 21 0 9 -17 13 -65 13 -51 0 -65
3 -65 15 0 10 -11 15 -35 15 -24 0 -35 5 -35 15 0 10 -10 15 -30 15 -17 0 -33
6 -36 14 -3 8 -19 18 -35 21 -16 4 -29 13 -29 21 0 8 -7 14 -15 14 -8 0 -15 7
-15 15 0 8 -6 15 -14 15 -8 0 -16 7 -20 15 -3 8 -12 15 -21 15 -8 0 -15 7 -15
15 0 8 -7 15 -15 15 -8 0 -15 9 -15 20 0 11 -7 20 -15 20 -10 0 -15 10 -15 30
0 20 -5 30 -15 30 -8 0 -15 7 -15 15 0 8 -7 15 -15 15 -10 0 -15 10 -15 30 0
16 -6 33 -13 37 -8 4 -17 26 -20 47 -4 22 -13 44 -22 48 -8 5 -15 22 -15 38 0
20 -5 30 -15 30 -10 0 -15 10 -15 30 0 20 -5 30 -15 30 -10 0 -15 11 -15 35 0
24 -5 35 -15 35 -10 0 -15 10 -15 30 0 19 -5 30 -14 30 -8 0 -17 13 -21 30 -4
16 -10 30 -15 30 -5 0 -11 13 -15 29 -3 16 -13 32 -21 35 -8 3 -14 12 -14 21
0 8 -7 15 -15 15 -10 0 -15 10 -15 30 0 20 -5 30 -15 30 -8 0 -15 9 -15 20 0
11 -6 20 -14 20 -8 0 -17 14 -21 30 -4 17 -13 30 -21 30 -8 0 -14 7 -14 15 0
8 -7 15 -15 15 -10 0 -15 10 -15 31 0 24 -4 30 -15 25 -11 -4 -15 1 -15 19 0
16 -6 25 -15 25 -8 0 -15 7 -15 15 0 8 -6 15 -14 15 -8 0 -17 13 -21 30 -4 17
-13 30 -21 30 -8 0 -14 6 -14 14 0 8 -7 16 -15 20 -8 3 -15 12 -15 21 0 8 -7
15 -15 15 -8 0 -15 7 -15 15 0 8 -7 15 -15 15 -8 0 -15 7 -15 15 0 8 -8 15
-17 15 -14 0 -15 2 -5 9 11 7 11 9 -2 14 -9 4 -16 13 -16 22 0 8 -7 15 -15 15
-8 0 -15 7 -15 15 0 8 -7 15 -15 15 -8 0 -15 9 -15 20 0 11 -7 20 -15 20 -8 0
-15 7 -15 15 0 8 -6 15 -14 15 -8 0 -17 13 -21 30 -4 16 -11 32 -16 35 -12 8
-12 125 1 125 5 0 12 16 16 35 3 20 12 35 20 35 8 0 14 7 14 15 0 8 7 15 15
15 8 0 15 7 15 15 0 8 5 15 11 15 7 0 17 7 24 17 9 13 30 16 98 16 66 0 89 -4
102 -16 9 -10 25 -17 36 -17 10 0 19 -7 19 -15 0 -8 7 -15 15 -15 8 0 15 -4
15 -9 0 -6 16 -27 35 -48 19 -21 35 -46 35 -55 0 -10 7 -18 15 -18 8 0 15 -7
15 -15 0 -8 7 -15 15 -15 8 0 15 -7 15 -15 0 -8 7 -15 15 -15 8 0 15 -5 15
-11 0 -15 74 -89 89 -89 6 0 11 -7 11 -15 0 -10 10 -15 30 -15 20 0 30 -5 30
-15 0 -12 18 -15 100 -15 82 0 100 3 100 15 0 10 10 15 30 15 20 0 30 5 30 15
0 8 7 15 15 15 8 0 15 7 15 15 0 8 7 15 15 15 8 0 15 7 15 15 0 9 7 18 15 21
9 4 15 19 15 35 0 16 5 29 11 29 5 0 7 5 3 11 -3 6 -1 14 5 18 8 5 12 258 13
925 3 861 4 918 21 930 9 7 17 18 17 25 0 6 7 11 15 11 8 0 15 7 15 15 0 8 7
15 15 15 8 0 15 6 15 14 0 15 30 26 73 26 16 0 26 4 22 10 -4 6 8 10 29 10 20
0 36 -4 36 -10z"/>
<path d="M2575 4962 c-166 -2 -231 -6 -237 -15 -4 -7 -43 -14 -100 -17 -67 -4
-92 -9 -90 -17 1 -7 -5 -13 -13 -13 -12 0 -15 -16 -15 -80 l0 -80 74 0 c58 0
79 4 92 18 16 16 54 17 502 17 445 -1 485 -2 497 -18 10 -14 29 -17 109 -17
79 0 96 -3 96 -15 0 -12 16 -15 80 -15 l80 0 0 80 c0 64 -3 80 -15 80 -8 0
-15 7 -15 15 0 12 -16 15 -80 15 -57 0 -81 4 -87 14 -6 10 -37 15 -111 18 -58
2 -106 8 -110 14 -8 13 -314 20 -657 16z"/>
<path d="M2360 4513 c-30 -2 -60 -9 -66 -14 -6 -5 -43 -12 -80 -16 -38 -3 -74
-12 -81 -19 -8 -8 -13 -40 -13 -87 0 -69 2 -75 23 -80 12 -3 33 -4 47 -2 14 2
35 4 48 4 13 1 20 6 17 11 -4 6 11 10 37 11 96 2 386 19 431 25 31 4 47 2 47
-5 0 -6 7 -11 15 -11 8 0 15 5 15 10 0 6 29 10 68 9 49 -1 60 -3 42 -9 -16 -5
19 -8 95 -9 171 -2 299 -12 306 -24 4 -5 50 -12 102 -15 75 -4 94 -8 90 -18
-4 -11 11 -14 71 -14 l76 0 0 78 c0 96 -13 112 -95 112 -36 0 -57 5 -62 14 -6
10 -34 15 -96 17 -48 2 -91 9 -95 14 -4 6 -14 12 -22 14 -21 6 -853 9 -920 4z"/>
<path d="M2713 4086 c-6 -11 -53 -15 -237 -18 -172 -2 -230 -6 -234 -15 -2 -8
-21 -13 -43 -13 -71 0 -79 -10 -79 -101 0 -51 4 -78 10 -74 6 3 10 1 10 -4 0
-15 67 -14 72 1 3 8 51 13 159 16 90 3 157 9 161 15 9 15 466 16 476 1 5 -8
65 -13 175 -16 112 -2 171 -7 175 -15 4 -6 48 -15 97 -19 50 -4 93 -11 96 -17
4 -5 27 -12 53 -14 l46 -6 0 95 0 95 -66 6 c-37 3 -69 9 -73 15 -3 5 -48 13
-98 17 -51 4 -91 11 -88 15 8 13 -82 20 -269 21 -100 0 -175 3 -168 6 34 14 3
23 -78 23 -66 0 -91 -4 -97 -14z"/>
</g>
</svg>
