<?xml version="1.0" standalone="no"?>
<!DOCTYPE svg PUBLIC "-//W3C//DTD SVG 20010904//EN"
 "http://www.w3.org/TR/2001/REC-SVG-20010904/DTD/svg10.dtd">
<svg version="1.0" xmlns="http://www.w3.org/2000/svg"
 width="1125.000000pt" height="973.000000pt" viewBox="0 0 1125.000000 973.000000"
 preserveAspectRatio="xMidYMid meet">
<metadata>
Created by potrace 1.16, written by Peter Selinger 2001-2019
</metadata>
<g transform="translate(0.000000,973.000000) scale(0.100000,-0.100000)"
fill="#000000" stroke="none">
<path d="M9405 9713 c-11 -3 -879 -342 -1929 -754 l-1908 -749 -2354 0 c-2106
0 -2359 -2 -2392 -16 -49 -20 -90 -60 -113 -109 -18 -39 -19 -157 -19 -3650 0
-3490 1 -3611 19 -3651 22 -48 82 -101 131 -114 53 -15 9551 -13 9601 1 52 16
108 64 130 113 18 40 19 161 19 3649 0 3239 -2 3611 -16 3645 -18 44 -57 87
-99 110 -26 15 -81 18 -410 22 l-380 5 -5 670 c-6 747 0 691 -77 775 -46 52
-121 72 -198 53z m-195 -3872 c0 -2611 -3 -3281 -12 -3288 -7 -6 -744 -299
-1638 -653 -894 -353 -1640 -648 -1658 -656 l-32 -13 2 3291 3 3290 1660 658
c913 361 1663 655 1668 653 4 -2 7 -1479 7 -3282z m-3800 -1406 l0 -3305 -635
0 -635 0 0 1313 0 1312 89 52 c455 268 765 710 873 1243 20 102 23 143 23 355
-1 222 -3 249 -27 365 -108 500 -362 889 -776 1187 -127 92 -316 183 -390 190
-103 9 -185 -37 -225 -126 -19 -44 -19 -60 -11 -595 5 -303 9 -603 9 -666 l0
-115 -190 -106 c-104 -59 -192 -106 -195 -105 -56 30 -391 231 -398 239 -5 7
-14 303 -21 662 -13 732 -8 694 -93 770 -53 48 -95 65 -162 65 -70 0 -134 -24
-273 -103 -164 -94 -265 -169 -383 -287 -163 -161 -266 -305 -364 -510 -274
-571 -239 -1244 93 -1794 163 -269 385 -484 674 -650 l47 -27 -2 -1307 -3
-1307 -635 0 -635 0 -3 3265 c-1 1796 0 3271 3 3278 3 9 438 12 2125 12 l2120
0 0 -3305z m4705 0 l0 -3300 -1605 -3 c-940 -1 -1600 2 -1595 7 6 5 602 240
1325 522 889 348 1328 524 1354 544 22 17 50 50 63 74 l23 44 0 2702 c0 1486
3 2705 7 2709 4 3 102 5 217 4 l211 -3 0 -3300z m-5793 1896 c181 -213 279
-410 335 -671 25 -118 25 -399 0 -525 -56 -277 -179 -513 -368 -703 -90 -91
-208 -175 -369 -261 -129 -69 -164 -98 -191 -156 -18 -38 -19 -99 -19 -1447
l0 -1408 -385 0 -385 0 0 1366 0 1366 -35 67 c-47 89 -84 124 -172 160 -400
165 -700 540 -790 989 -28 138 -25 415 5 552 62 275 185 500 380 694 l80 78 6
-68 c3 -38 8 -229 12 -424 8 -485 14 -559 46 -607 15 -23 47 -50 79 -67 30
-15 200 -110 379 -210 l325 -181 70 0 70 1 355 198 c195 109 368 210 383 224
16 15 39 45 50 67 26 47 27 118 14 723 l-9 374 26 -17 c14 -10 63 -61 108
-114z"/>
<path d="M8205 7724 c-198 -80 -708 -285 -1134 -457 -567 -228 -784 -319 -810
-341 -71 -63 -91 -172 -50 -281 15 -41 31 -64 61 -85 50 -36 136 -56 187 -42
52 14 2248 899 2296 925 89 50 131 190 86 292 -29 65 -46 83 -106 111 -35 17
-67 24 -110 24 -54 -1 -97 -16 -420 -146z"/>
<path d="M8595 6810 c-63 -15 -2282 -913 -2317 -937 -102 -69 -117 -254 -30
-347 45 -48 96 -66 192 -66 l85 0 1129 455 c1219 491 1178 471 1212 561 21 54
15 153 -11 208 -27 57 -81 104 -138 121 -55 16 -75 17 -122 5z"/>
<path d="M8565 5730 c-64 -20 -2270 -960 -2295 -978 -42 -30 -80 -117 -80
-182 0 -147 89 -240 229 -240 33 0 289 104 1189 486 1247 528 1204 507 1237
602 40 117 -5 241 -105 292 -46 23 -133 33 -175 20z"/>
<path d="M7445 4121 c-860 -347 -1150 -467 -1179 -492 -55 -46 -79 -106 -74
-184 6 -92 40 -152 107 -187 46 -24 65 -28 141 -28 l88 0 1107 445 c609 245
1119 452 1133 459 71 37 112 111 112 198 -1 147 -96 248 -232 248 -60 -1 -126
-26 -1203 -459z"/>
<path d="M8560 3520 c-56 -17 -2265 -982 -2291 -1001 -43 -30 -79 -113 -79
-180 0 -145 86 -238 221 -239 52 0 135 34 1205 499 1059 461 1152 503 1185
540 137 153 24 396 -183 390 -18 0 -44 -4 -58 -9z"/>
<path d="M1584 7386 l-35 -35 3 -256 3 -257 33 -29 c55 -50 152 -33 188 33 9
16 13 70 14 171 l0 147 58 0 c31 0 68 6 82 13 85 43 95 199 15 235 -16 8 -81
12 -176 12 l-151 0 -34 -34z"/>
<path d="M1615 3981 c-11 -5 -29 -19 -40 -31 -19 -21 -20 -36 -20 -307 l0
-285 33 -29 c43 -39 98 -40 142 -3 58 49 60 61 60 316 0 133 -5 249 -11 271
-17 62 -97 95 -164 68z"/>
<path d="M1615 3141 c-11 -5 -29 -19 -40 -31 -20 -22 -20 -38 -23 -701 -3
-747 -5 -722 58 -754 43 -22 427 -22 475 0 39 19 60 55 60 105 0 96 -44 120
-224 120 l-131 0 0 578 c0 374 -4 590 -11 615 -17 62 -97 95 -164 68z"/>
<path d="M4848 2464 c-54 -29 -58 -49 -58 -329 l0 -255 -61 0 c-104 0 -154
-39 -154 -120 0 -97 44 -120 225 -120 146 0 186 11 211 57 11 21 14 94 14 363
0 371 -1 376 -60 405 -41 19 -82 19 -117 -1z"/>
<path d="M6170 9121 c-25 -10 -192 -84 -371 -164 l-326 -147 -1422 0 c-956 0
-1429 -3 -1442 -10 -67 -36 -63 -177 6 -208 20 -9 378 -12 1498 -12 l1472 0
354 165 c195 91 361 171 369 178 27 22 52 92 46 126 -14 68 -105 104 -184 72z"/>
<path d="M61 8794 c-46 -33 -51 -65 -51 -341 0 -226 2 -262 18 -293 33 -67
126 -83 184 -31 l33 29 3 211 3 211 350 0 351 0 28 29 c53 52 52 131 -1 175
l-31 26 -432 0 c-383 0 -434 -2 -455 -16z"/>
<path d="M1421 8784 c-53 -44 -54 -123 -1 -175 l28 -29 242 0 242 0 34 34 c28
28 34 42 34 76 0 47 -13 77 -44 102 -19 16 -49 18 -263 18 l-241 0 -31 -26z"/>
<path d="M11039 1221 l-29 -29 0 -471 0 -471 -1330 0 c-1434 0 -1376 2 -1414
-51 -18 -27 -21 -97 -5 -132 6 -13 23 -31 39 -40 26 -16 141 -17 1450 -17
1319 0 1424 1 1451 17 15 9 31 24 34 32 12 29 5 1112 -7 1135 -20 40 -50 56
-106 56 -46 0 -58 -4 -83 -29z"/>
<path d="M6824 236 c-45 -20 -64 -52 -64 -108 0 -39 6 -54 29 -80 l29 -33 466
0 466 0 26 26 c56 56 38 166 -31 195 -49 20 -874 20 -921 0z"/>
</g>
</svg>
