<?xml version="1.0" standalone="no"?>
<!DOCTYPE svg PUBLIC "-//W3C//DTD SVG 20010904//EN"
 "http://www.w3.org/TR/2001/REC-SVG-20010904/DTD/svg10.dtd">
<svg version="1.0" xmlns="http://www.w3.org/2000/svg"
 width="840.000000pt" height="880.000000pt" viewBox="0 0 840.000000 880.000000"
 preserveAspectRatio="xMidYMid meet">
<metadata>
Created by potrace 1.16, written by Peter Selinger 2001-2019
</metadata>
<g transform="translate(0.000000,880.000000) scale(0.100000,-0.100000)"
fill="#000000" stroke="none">
<path d="M531 8384 c-30 -8 -76 -26 -102 -41 -59 -31 -148 -123 -178 -181 -54
-107 -51 144 -51 -3762 0 -3905 -3 -3655 51 -3762 30 -58 113 -143 174 -178
112 -64 -110 -60 3107 -60 2106 0 2942 3 2980 11 80 17 182 74 235 133 92 101
126 221 121 416 l-3 105 -110 0 -110 0 -5 -145 c-4 -130 -8 -149 -29 -187 -29
-51 -80 -88 -141 -103 -32 -8 -880 -10 -2965 -8 l-2920 3 -40 22 c-46 24 -75
54 -101 103 -18 34 -19 140 -19 3650 l0 3615 22 40 c24 46 54 75 103 101 34
18 102 19 1953 22 l1917 2 0 -460 c0 -516 4 -551 66 -657 68 -116 190 -195
326 -213 41 -5 456 -10 950 -10 l878 0 2 -217 3 -218 114 -3 113 -3 -4 243
c-4 214 -7 251 -26 308 -25 77 -68 145 -121 193 -49 44 -1990 1209 -2056 1233
-48 18 -125 19 -2065 21 -1737 2 -2022 0 -2069 -13z"/>
<path d="M1092 7068 l3 -223 1440 0 1440 0 3 223 2 222 -1445 0 -1445 0 2
-222z"/>
<path d="M5285 6389 c-922 -86 -1733 -647 -2145 -1484 -185 -377 -270 -744
-270 -1170 0 -278 30 -495 105 -755 90 -312 268 -653 481 -920 87 -109 295
-317 404 -404 208 -166 519 -341 765 -432 121 -44 372 -107 515 -129 142 -22
505 -31 656 -16 1043 105 1936 818 2268 1813 322 968 58 2044 -675 2753 -212
205 -421 352 -684 481 -301 147 -568 224 -900 259 -150 16 -374 18 -520 4z
m576 -460 c645 -91 1221 -475 1574 -1049 153 -248 259 -554 301 -860 19 -142
18 -428 -2 -580 -95 -732 -566 -1381 -1235 -1704 -501 -242 -1049 -289 -1584
-135 -597 171 -1106 601 -1381 1165 -459 942 -188 2086 646 2729 308 237 720
405 1095 444 215 23 372 21 586 -10z"/>
<path d="M5445 5491 c-51 -23 -111 -89 -124 -138 -15 -54 -15 -1633 0 -1688
15 -53 91 -129 144 -144 59 -16 1413 -15 1469 1 58 17 128 90 145 150 26 91
-9 188 -87 243 l-44 30 -593 3 -594 2 -3 693 c-3 650 -4 695 -22 735 -47 109
-184 162 -291 113z"/>
<path d="M1090 5290 l0 -220 890 0 890 0 0 220 0 220 -890 0 -890 0 0 -220z"/>
<path d="M1090 3510 l0 -220 665 0 665 0 0 220 0 220 -665 0 -665 0 0 -220z"/>
<path d="M1090 1735 l0 -225 1000 0 1000 0 0 225 0 225 -1000 0 -1000 0 0
-225z"/>
</g>
</svg>
